<svg width="24" height="24" viewBox="0 0 24 24" fill="none" xmlns="http://www.w3.org/2000/svg">
<path fill-rule="evenodd" clip-rule="evenodd" d="M0 0H24V24H0V0Z" fill="url(#paint0_linear_13_7601)"/>
<path fill-rule="evenodd" clip-rule="evenodd" d="M11.3996 16.8H12.5996V16.2H11.3996V16.8ZM8.39961 4.35725L4.19961 6.18125V18.2142L8.39961 19.6776V4.35725ZM8.99961 7.80005V16.2H10.1996V16.8H8.99961V20.1C8.99958 20.1479 8.98811 20.195 8.96616 20.2375C8.9442 20.28 8.91241 20.3166 8.87342 20.3444C8.83444 20.3721 8.78939 20.3901 8.74203 20.3968C8.69468 20.4036 8.6464 20.3989 8.60121 20.3832L3.80121 18.711C3.74236 18.6906 3.69134 18.6524 3.65521 18.6016C3.61908 18.5509 3.59965 18.4901 3.59961 18.4278V5.98445C3.59961 5.86505 3.67041 5.75705 3.78021 5.70965L8.58021 3.62525C8.62582 3.60546 8.67564 3.59732 8.72518 3.60156C8.77472 3.60579 8.82244 3.62228 8.86403 3.64953C8.90562 3.67678 8.93978 3.71394 8.96345 3.75767C8.98711 3.8014 8.99954 3.85033 8.99961 3.90005V7.20005H10.1996V7.80005H8.99961ZM19.7996 6.18125L15.5996 4.35725V19.6776L19.7996 18.2142V6.18125ZM20.3996 5.98445V18.4278C20.3996 18.4901 20.3801 18.5509 20.344 18.6016C20.3079 18.6524 20.2569 18.6906 20.198 18.711L15.398 20.3832C15.3528 20.3987 15.3045 20.4033 15.2572 20.3966C15.2099 20.3899 15.1648 20.3722 15.1256 20.3448C15.0866 20.3171 15.0548 20.2803 15.0329 20.2378C15.0109 20.1952 14.9995 20.1479 14.9996 20.1V16.8H13.7996V16.2H14.9996V7.80005H13.7996V7.20005H14.9996V3.90005C14.9997 3.85033 15.0121 3.8014 15.0358 3.75767C15.0594 3.71394 15.0936 3.67678 15.1352 3.64953C15.1768 3.62228 15.2245 3.60579 15.274 3.60156C15.3236 3.59732 15.3734 3.60546 15.419 3.62525L20.219 5.70965C20.2726 5.73283 20.3183 5.77121 20.3504 5.82003C20.3825 5.86886 20.3996 5.92602 20.3996 5.98445ZM11.3996 7.80005H12.5996V7.20005H11.3996V7.80005ZM14.3846 9.39485L13.8146 9.20525L12.0146 14.6052L12.5846 14.7948L14.3846 9.39485ZM11.4872 13.7124L9.68721 11.9124C9.63108 11.856 9.59957 11.7796 9.59957 11.7C9.59957 11.6204 9.63108 11.5441 9.68721 11.4876L11.4872 9.68765L11.912 10.1124L10.3238 11.7L11.912 13.2876L11.4872 13.7124Z" fill="white"/>
<defs>
<linearGradient id="paint0_linear_13_7601" x1="0" y1="24" x2="24" y2="0" gradientUnits="userSpaceOnUse">
<stop stop-color="#4D27A8"/>
<stop offset="1" stop-color="#A166FF"/>
</linearGradient>
</defs>
</svg>
