<svg width="22" height="22" viewBox="0 0 22 22" fill="none" xmlns="http://www.w3.org/2000/svg">
<path fill-rule="evenodd" clip-rule="evenodd" d="M11.9545 11.4775H12.9085V10.523H11.9545V11.4775ZM10.5225 11.4775H11.477V10.523H10.5225V11.4775ZM9.091 11.4775H10.0455V10.523H9.091V11.4775ZM17.659 14.5015L14.364 17.401V4.666L17.659 7.565V14.5015ZM14.472 3.463C14.37 3.4195 13.928 3.2895 13.621 3.46L13.364 3.6025V18.4645L13.621 18.607C13.7355 18.6705 13.8685 18.6925 13.9965 18.6925C14.2105 18.6925 14.408 18.6315 14.472 18.604L14.546 18.573L18.2825 15.2845C18.514 15.1495 18.659 14.9065 18.659 14.642V7.4245C18.659 7.1605 18.5145 6.9175 18.283 6.782L14.546 3.494L14.472 3.463ZM7.6365 17.4015L4.341 14.502V7.5645L7.6365 4.6655V17.4015ZM7.5275 3.463L7.4535 3.494L3.716 6.7825C3.4855 6.918 3.341 7.1605 3.341 7.4245V14.642C3.341 14.906 3.4855 15.1495 3.7165 15.284L7.4535 18.573L7.5275 18.604C7.591 18.6315 7.789 18.6925 8.003 18.6925C8.1305 18.6925 8.2635 18.6705 8.378 18.6075L8.6365 18.465V3.602L8.378 3.4595C8.072 3.291 7.629 3.4195 7.5275 3.463ZM21 15.142L15.142 21H6.8575L1 15.142V6.858L6.8575 1H15.142L21 6.858V15.142ZM15.556 0H6.4435L0 6.444V15.556L6.4435 22H15.556L22 15.556V6.444L15.556 0Z" fill="#4D27AA"/>
</svg>
