<svg width="24" height="24" viewBox="0 0 24 24" fill="none" xmlns="http://www.w3.org/2000/svg">
<g clip-path="url(#clip0_13_4823)">
<g clip-path="url(#clip1_13_4823)">
<path fill-rule="evenodd" clip-rule="evenodd" d="M0 0H24V24H0V0Z" fill="url(#paint0_linear_13_4823)"/>
<path fill-rule="evenodd" clip-rule="evenodd" d="M15.8906 14.8212V10.1268L12.2804 12.1674V16.9284L15.8906 14.8212V14.8212ZM8.0906 14.8212L11.6804 16.9272V12.1668L8.0906 10.128V14.8212ZM8.3966 9.61141L11.981 11.6472L15.5816 9.61141L11.981 7.56421L8.3966 9.61141V9.61141ZM16.3418 15.2526L12.1316 17.7102C12.0855 17.7368 12.0332 17.7507 11.98 17.7506C11.9268 17.7505 11.8746 17.7364 11.8286 17.7096L7.6388 15.252C7.5937 15.2256 7.5563 15.1878 7.53031 15.1424C7.50431 15.0971 7.49062 15.0457 7.4906 14.9934V9.61201C7.4906 9.50461 7.5488 9.40501 7.6418 9.35161L11.8316 6.95881C11.8768 6.93294 11.9279 6.91929 11.98 6.91918C12.0321 6.91907 12.0833 6.93253 12.1286 6.95821L16.3388 9.35221C16.3847 9.37836 16.4229 9.41614 16.4495 9.46175C16.4762 9.50736 16.4904 9.55919 16.4906 9.61201V14.9934C16.4905 15.0458 16.4767 15.0973 16.4506 15.1428C16.4245 15.1882 16.387 15.2261 16.3418 15.2526V15.2526ZM12.0002 4.80061C14.4224 4.80061 16.682 6.09361 18.0464 8.26141L18.5534 7.94101C17.0792 5.59861 14.6294 4.20001 12.0002 4.20001C9.3692 4.20001 6.9194 5.59801 5.4464 7.94161L5.9534 8.26141C7.3166 6.09361 9.5768 4.80001 12.0002 4.80001V4.80061ZM19.2002 12.2952C19.1186 15.642 16.6958 18.5502 13.4402 19.2114L13.5596 19.8C17.087 19.0842 19.7114 15.9342 19.8002 12.3102L19.2002 12.2952V12.2952ZM10.5596 19.212L10.4402 19.8C6.9128 19.0842 4.2884 15.9342 4.2002 12.3102L4.8002 12.2952C4.8812 15.642 7.304 18.5502 10.5596 19.2114V19.212Z" fill="white"/>
</g>
</g>
<defs>
<linearGradient id="paint0_linear_13_4823" x1="0" y1="24" x2="24" y2="0" gradientUnits="userSpaceOnUse">
<stop stop-color="#055F4E"/>
<stop offset="1" stop-color="#56C0A7"/>
</linearGradient>
<clipPath id="clip0_13_4823">
<rect width="24" height="24" fill="white"/>
</clipPath>
<clipPath id="clip1_13_4823">
<rect width="24" height="24" fill="white"/>
</clipPath>
</defs>
</svg>
