<svg xmlns="http://www.w3.org/2000/svg">
<path d="M10.9997 4.66666C11.5132 4.6664 12.0158 4.8144 12.4472 5.09287C12.8786 5.37133 13.2204 5.76843 13.4316 6.23646C13.6428 6.70449 13.7144 7.22354 13.6378 7.73127C13.5612 8.239 13.3396 8.7138 12.9997 9.09866V12.1653C12.9998 12.2509 12.978 12.3351 12.9363 12.4099C12.8946 12.4847 12.8344 12.5475 12.7615 12.5923C12.6886 12.6371 12.6054 12.6625 12.5198 12.6659C12.4343 12.6694 12.3493 12.6508 12.273 12.612L12.213 12.5753L10.9997 11.7273L9.78634 12.5753C9.71627 12.6243 9.63483 12.6544 9.54979 12.6629C9.46475 12.6714 9.37895 12.6579 9.30058 12.6238C9.22222 12.5897 9.1539 12.5361 9.10216 12.4681C9.05041 12.4001 9.01696 12.3199 9.00501 12.2353L9.00034 12.1653V9.09732C8.66088 8.71247 8.43967 8.23785 8.36326 7.73041C8.28684 7.22296 8.35847 6.70424 8.56954 6.23649C8.78061 5.76874 9.12217 5.37183 9.55322 5.09338C9.98427 4.81492 10.4865 4.66676 10.9997 4.66666ZM11.9997 9.80665C11.682 9.93514 11.3424 10.001 10.9997 10.0007C10.657 10.001 10.3174 9.93514 9.99967 9.80665V11.206L10.7137 10.708C10.7868 10.6568 10.8722 10.626 10.9612 10.619C11.0502 10.612 11.1394 10.6289 11.2197 10.668L11.2863 10.708L11.9997 11.206V9.80665ZM11.833 0.00265503C12.2999 0.00263187 12.7491 0.180717 13.0892 0.500584C13.4293 0.820451 13.6345 1.258 13.663 1.72399L13.6663 1.83599L13.667 5.33332C13.3967 4.97338 13.0566 4.6716 12.667 4.44599L12.6663 1.83599C12.6664 1.62968 12.59 1.43068 12.4518 1.27748C12.3137 1.12428 12.1236 1.02778 11.9183 1.00666L11.833 1.00266H2.16634C1.96004 1.00256 1.76103 1.079 1.60783 1.21717C1.45463 1.35534 1.35813 1.54543 1.33701 1.75066L1.33301 1.83599V8.16932C1.33301 8.60066 1.66101 8.95599 2.08101 8.99799L2.16634 9.00266L8.11434 9.00332L8.19634 9.13866L8.28567 9.26932L8.33301 9.33199L8.33234 10.0027H2.16634C1.69938 10.0027 1.25 9.82449 0.909925 9.50448C0.569848 9.18448 0.364699 8.74676 0.336341 8.28066L0.333008 8.16932V1.83599C0.332985 1.36913 0.511069 0.91985 0.830937 0.57979C1.1508 0.23973 1.58836 0.0345092 2.05434 0.00598844L2.16634 0.00265503H11.833ZM10.9997 5.66666C10.5576 5.66666 10.1336 5.84229 9.82093 6.15491C9.50831 6.46753 9.33267 6.89154 9.33267 7.33366C9.33267 7.77577 9.50831 8.19978 9.82093 8.5124C10.1336 8.82503 10.5576 9.00066 10.9997 9.00066C11.4418 9.00066 11.8658 8.82503 12.1784 8.5124C12.491 8.19978 12.6667 7.77577 12.6667 7.33366C12.6667 6.89154 12.491 6.46753 12.1784 6.15491C11.8658 5.84229 11.4418 5.66666 10.9997 5.66666ZM6.49967 6.33332C6.62636 6.33336 6.7483 6.38149 6.84087 6.46797C6.93344 6.55446 6.98972 6.67285 6.99836 6.79924C7.00699 6.92563 6.96733 7.05058 6.88739 7.14885C6.80744 7.24713 6.69317 7.31139 6.56767 7.32866L6.49967 7.33332H3.49967C3.37299 7.33328 3.25105 7.28516 3.15848 7.19867C3.06591 7.11219 3.00963 6.99379 3.00099 6.8674C2.99236 6.74101 3.03202 6.61606 3.11196 6.51779C3.19191 6.41952 3.30617 6.35526 3.43167 6.33799L3.49967 6.33332H6.49967ZM10.4997 2.66666C10.6264 2.66669 10.7483 2.71482 10.8409 2.8013C10.9334 2.88779 10.9897 3.00619 10.9984 3.13258C11.007 3.25896 10.9673 3.38392 10.8874 3.48219C10.8074 3.58046 10.6932 3.64472 10.5677 3.66199L10.4997 3.66666H3.49967C3.37299 3.66662 3.25105 3.61849 3.15848 3.53201C3.06591 3.44552 3.00963 3.32712 3.00099 3.20074C2.99236 3.07435 3.03202 2.94939 3.11196 2.85112C3.19191 2.75285 3.30617 2.68859 3.43167 2.67132L3.49967 2.66666H10.4997Z" />
</svg>
