<svg xmlns="http://www.w3.org/2000/svg">
<path d="M7.99968 1.83325C6.68114 1.83325 5.3922 2.22425 4.29588 2.95679C3.19955 3.68933 2.34506 4.73052 1.84048 5.9487C1.3359 7.16687 1.20387 8.50731 1.46111 9.80052C1.71834 11.0937 2.35328 12.2816 3.28563 13.214C4.21798 14.1463 5.40587 14.7813 6.69908 15.0385C7.99228 15.2957 9.33273 15.1637 10.5509 14.6591C11.7691 14.1545 12.8103 13.3 13.5428 12.2037C14.2754 11.1074 14.6663 9.81846 14.6663 8.49992C14.6663 7.62444 14.4939 6.75753 14.1589 5.9487C13.8238 5.13986 13.3328 4.40493 12.7137 3.78587C12.0947 3.16682 11.3597 2.67575 10.5509 2.34072C9.74206 2.00569 8.87516 1.83325 7.99968 1.83325ZM7.99968 13.8333C6.94484 13.8333 5.9137 13.5205 5.03664 12.9344C4.15957 12.3484 3.47599 11.5154 3.07232 10.5409C2.66865 9.56636 2.56304 8.494 2.76882 7.45944C2.97461 6.42487 3.48256 5.47456 4.22844 4.72868C4.97432 3.9828 5.92463 3.47485 6.9592 3.26906C7.99376 3.06328 9.06612 3.16889 10.0407 3.57256C11.0152 3.97623 11.8481 4.65982 12.4342 5.53688C13.0202 6.41394 13.333 7.44509 13.333 8.49992C13.333 9.91441 12.7711 11.271 11.7709 12.2712C10.7707 13.2713 9.41417 13.8333 7.99968 13.8333Z" />
<path d="M7.99967 7.83333C6.66634 7.83333 6.66634 7.41333 6.66634 7.16667C6.66634 6.92 7.13301 6.5 7.99967 6.5C8.86634 6.5 8.92634 6.92667 8.93301 7.16667H10.2663C10.2573 6.7125 10.094 6.27494 9.80318 5.92597C9.51237 5.577 9.11143 5.33743 8.66634 5.24667V4.5H7.33301V5.22667C5.99967 5.44667 5.33301 6.30667 5.33301 7.16667C5.33301 7.91333 5.67967 9.16667 7.99967 9.16667C9.33301 9.16667 9.33301 9.62 9.33301 9.83333C9.33301 10.0467 8.91967 10.5 7.99967 10.5C6.77301 10.5 6.66634 9.92667 6.66634 9.83333H5.33301C5.33301 10.4467 5.77301 11.5333 7.33301 11.78V12.5H8.66634V11.78C9.99967 11.5533 10.6663 10.6933 10.6663 9.83333C10.6663 9.08667 10.3197 7.83333 7.99967 7.83333Z" />
</svg>
