<svg xmlns="http://www.w3.org/2000/svg">
<path d="M6.00033 7.00001C6.36699 7.00001 6.68099 6.86934 6.94233 6.60801C7.20366 6.34668 7.3341 6.0329 7.33366 5.66668C7.33366 5.30001 7.20299 4.98601 6.94166 4.72468C6.68033 4.46334 6.36655 4.3329 6.00033 4.33334C5.63366 4.33334 5.31966 4.46401 5.05833 4.72534C4.79699 4.98668 4.66655 5.30045 4.66699 5.66668C4.66699 6.03334 4.79766 6.34734 5.05899 6.60868C5.32033 6.87001 5.6341 7.00045 6.00033 7.00001ZM6.00033 11.9C7.35588 10.6556 8.36144 9.5249 9.01699 8.50801C9.67255 7.49112 10.0003 6.58845 10.0003 5.80001C10.0003 4.5889 9.6141 3.59734 8.84166 2.82534C8.06921 2.05334 7.1221 1.66712 6.00033 1.66668C4.8781 1.66668 3.93077 2.0529 3.15833 2.82534C2.38588 3.59779 1.99988 4.58934 2.00033 5.80001C2.00033 6.5889 2.3281 7.49179 2.98366 8.50868C3.63921 9.52557 4.64477 10.656 6.00033 11.9ZM6.00033 13.6667C4.21144 12.1445 2.87544 10.7307 1.99233 9.42534C1.10921 8.12001 0.667437 6.91157 0.666992 5.80001C0.666992 4.13334 1.20321 2.80557 2.27566 1.81668C3.3481 0.827788 4.58966 0.333344 6.00033 0.333344C7.41144 0.333344 8.65321 0.827788 9.72566 1.81668C10.7981 2.80557 11.3341 4.13334 11.3337 5.80001C11.3337 6.91112 10.8919 8.11957 10.0083 9.42534C9.12477 10.7311 7.78877 12.1449 6.00033 13.6667Z"/>
</svg>
