<svg xmlns="http://www.w3.org/2000/svg">
<path d="M11 9C10.75 9 10.5 8.9 10.3 8.7L8.8 7.2C8.6 7 8.5 6.75 8.5 6.5C8.5 6.25 8.6 6 8.8 5.8L10.3 4.3C10.5 4.1 10.75 4 11 4C11.25 4 11.5 4.1 11.7 4.3L13.2 5.8C13.4 6 13.5 6.25 13.5 6.5C13.5 6.75 13.4 7 13.2 7.2L11.7 8.7C11.5 8.9 11.25 9 11 9ZM11 5L9.5 6.5L11 8L12.5 6.5L11 5ZM7 5C6.75 5 6.5 4.9 6.3 4.7L4.8 3.2C4.6 3 4.5 2.75 4.5 2.5C4.5 2.25 4.6 2 4.8 1.8L6.3 0.3C6.5 0.0999999 6.75 0 7 0C7.25 0 7.5 0.0999999 7.7 0.3L9.2 1.8C9.4 2 9.5 2.25 9.5 2.5C9.5 2.75 9.4 3 9.2 3.2L7.7 4.7C7.5 4.9 7.25 5 7 5ZM7 1L5.5 2.5L7 4L8.5 2.5L7 1ZM7 13C6.75 13 6.5 12.9 6.3 12.7L4.8 11.2C4.6 11 4.5 10.75 4.5 10.5C4.5 10.25 4.6 10 4.8 9.8L6.3 8.3C6.5 8.1 6.75 8 7 8C7.25 8 7.5 8.1 7.7 8.3L9.2 9.8C9.4 10 9.5 10.25 9.5 10.5C9.5 10.75 9.4 11 9.2 11.2L7.7 12.7C7.5 12.9 7.25 13 7 13ZM7 9L5.5 10.5L7 12L8.5 10.5L7 9ZM3 9C2.75 9 2.5 8.9 2.3 8.7L0.8 7.2C0.6 7 0.5 6.75 0.5 6.5C0.5 6.25 0.6 6 0.8 5.8L2.3 4.3C2.5 4.1 2.75 4 3 4C3.25 4 3.5 4.1 3.7 4.3L5.2 5.8C5.4 6 5.5 6.25 5.5 6.5C5.5 6.75 5.4 7 5.2 7.2L3.7 8.7C3.5 8.9 3.25 9 3 9ZM3 5L1.5 6.5L3 8L4.5 6.5L3 5Z" />
</svg>
