<svg xmlns="http://www.w3.org/2000/svg">
<path d="M11.0996 4.52667L7.87289 4.24667L6.61289 1.28C6.38623 0.74 5.61289 0.74 5.38623 1.28L4.12623 4.25333L0.906227 4.52667C0.31956 4.57333 0.0795601 5.30667 0.526227 5.69333L2.97289 7.81333L2.23956 10.96C2.10623 11.5333 2.72623 11.9867 3.23289 11.68L5.99956 10.0133L8.76623 11.6867C9.27289 11.9933 9.89289 11.54 9.75956 10.9667L9.02623 7.81333L11.4729 5.69333C11.9196 5.30667 11.6862 4.57333 11.0996 4.52667ZM5.99956 8.76667L3.49289 10.28L4.15956 7.42667L1.94623 5.50667L4.86623 5.25333L5.99956 2.56667L7.13956 5.26L10.0596 5.51333L7.84623 7.43333L8.51289 10.2867L5.99956 8.76667Z" />
</svg>
