<svg xmlns="http://www.w3.org/2000/svg">
<path d="M6.99967 0.833344C6.1242 0.833344 5.25729 1.00578 4.44845 1.34081C3.63961 1.67584 2.90469 2.16691 2.28563 2.78596C1.03539 4.03621 0.333008 5.7319 0.333008 7.50001C0.333008 9.26812 1.03539 10.9638 2.28563 12.2141C2.90469 12.8331 3.63961 13.3242 4.44845 13.6592C5.25729 13.9942 6.1242 14.1667 6.99967 14.1667C8.76779 14.1667 10.4635 13.4643 11.7137 12.2141C12.964 10.9638 13.6663 9.26812 13.6663 7.50001C13.6663 6.62453 13.4939 5.75762 13.1589 4.94879C12.8238 4.13995 12.3328 3.40502 11.7137 2.78596C11.0947 2.16691 10.3597 1.67584 9.5509 1.34081C8.74206 1.00578 7.87515 0.833344 6.99967 0.833344ZM3.71301 11.6867C3.99967 11.0867 5.74634 10.5 6.99967 10.5C8.25301 10.5 9.99967 11.0867 10.2863 11.6867C9.3526 12.4307 8.19359 12.8351 6.99967 12.8333C5.75967 12.8333 4.61967 12.4067 3.71301 11.6867ZM11.2397 10.72C10.2863 9.56001 7.97301 9.16668 6.99967 9.16668C6.02634 9.16668 3.71301 9.56001 2.75967 10.72C2.05046 9.79643 1.66612 8.66448 1.66634 7.50001C1.66634 4.56001 4.05967 2.16668 6.99967 2.16668C9.93967 2.16668 12.333 4.56001 12.333 7.50001C12.333 8.71334 11.9197 9.83334 11.2397 10.72ZM6.99967 3.50001C5.70634 3.50001 4.66634 4.54001 4.66634 5.83334C4.66634 7.12668 5.70634 8.16668 6.99967 8.16668C8.29301 8.16668 9.33301 7.12668 9.33301 5.83334C9.33301 4.54001 8.29301 3.50001 6.99967 3.50001ZM6.99967 6.83334C6.73446 6.83334 6.4801 6.72799 6.29257 6.54045C6.10503 6.35291 5.99967 6.09856 5.99967 5.83334C5.99967 5.56813 6.10503 5.31377 6.29257 5.12624C6.4801 4.9387 6.73446 4.83334 6.99967 4.83334C7.26489 4.83334 7.51925 4.9387 7.70678 5.12624C7.89432 5.31377 7.99967 5.56813 7.99967 5.83334C7.99967 6.09856 7.89432 6.35291 7.70678 6.54045C7.51925 6.72799 7.26489 6.83334 6.99967 6.83334Z"/>
</svg>
