<svg width="24" height="24" viewBox="0 0 24 24" fill="none" xmlns="http://www.w3.org/2000/svg">
<path d="M21 12.1875C21 12.1875 17.625 6 12 6C6.375 6 3 12.1875 3 12.1875C3 12.1875 6.375 18.375 12 18.375C17.625 18.375 21 12.1875 21 12.1875ZM4.31963 12.1875C4.86358 11.3608 5.48922 10.5908 6.18712 9.88912C7.635 8.439 9.615 7.125 12 7.125C14.385 7.125 16.3639 8.439 17.814 9.88912C18.5119 10.5908 19.1375 11.3608 19.6815 12.1875C19.6163 12.2854 19.5443 12.3934 19.4621 12.5115C19.0853 13.0515 18.5284 13.7715 17.814 14.4859C16.3639 15.936 14.3839 17.25 12 17.25C9.615 17.25 7.63613 15.936 6.186 14.4859C5.4881 13.7842 4.86246 13.0142 4.3185 12.1875H4.31963Z" fill="black"/>
<path d="M12 9.375C11.2541 9.375 10.5387 9.67132 10.0113 10.1988C9.48382 10.7262 9.1875 11.4416 9.1875 12.1875C9.1875 12.9334 9.48382 13.6488 10.0113 14.1762C10.5387 14.7037 11.2541 15 12 15C12.7459 15 13.4613 14.7037 13.9887 14.1762C14.5162 13.6488 14.8125 12.9334 14.8125 12.1875C14.8125 11.4416 14.5162 10.7262 13.9887 10.1988C13.4613 9.67132 12.7459 9.375 12 9.375ZM8.0625 12.1875C8.0625 11.1432 8.47734 10.1417 9.21577 9.40327C9.95419 8.66484 10.9557 8.25 12 8.25C13.0443 8.25 14.0458 8.66484 14.7842 9.40327C15.5227 10.1417 15.9375 11.1432 15.9375 12.1875C15.9375 13.2318 15.5227 14.2333 14.7842 14.9717C14.0458 15.7102 13.0443 16.125 12 16.125C10.9557 16.125 9.95419 15.7102 9.21577 14.9717C8.47734 14.2333 8.0625 13.2318 8.0625 12.1875Z" fill="black"/>
</svg>
