<svg width="29" height="28" viewBox="0 0 29 28" fill="none" xmlns="http://www.w3.org/2000/svg">
<g clip-path="url(#clip0_562_1392)">
<path d="M14.8562 28.0089L20.0082 10.8091H9.7041L14.8561 28.0089H14.8562Z" fill="#E24329"/>
<path d="M14.8558 28.0088L9.70368 10.809H2.4834L14.8558 28.0088Z" fill="#FC6D26"/>
<path d="M2.48304 10.809L0.91745 16.0359C0.847839 16.2683 0.847829 16.5186 0.917422 16.751C0.987016 16.9834 1.12264 17.1859 1.30486 17.3295L14.8554 28.0089L2.48293 10.8091L2.48304 10.809Z" fill="#FCA326"/>
<path d="M2.4834 10.8091H9.70368L6.60082 0.449653C6.44113 -0.0834152 5.74594 -0.0832966 5.58637 0.449653L2.4834 10.8091Z" fill="#E24329"/>
<path d="M14.8556 28.0088L20.0076 10.809H27.228L14.8555 28.0088H14.8556Z" fill="#FC6D26"/>
<path d="M27.2279 10.809L28.7935 16.0359C28.8631 16.2683 28.863 16.5186 28.7934 16.751C28.7238 16.9834 28.5882 17.1859 28.4059 17.3295L14.8555 28.0089L27.2279 10.8091V10.809Z" fill="#FCA326"/>
<path d="M27.2282 10.8091H20.0078L23.1108 0.449653C23.2705 -0.0834152 23.9657 -0.0832966 24.1252 0.449653L27.2282 10.8091Z" fill="#E24329"/>
</g>
<defs>
<clipPath id="clip0_562_1392">
<rect width="28" height="28" fill="white" transform="translate(0.847656)"/>
</clipPath>
</defs>
</svg>
