<svg width="27" height="28" viewBox="0 0 27 28" fill="none" xmlns="http://www.w3.org/2000/svg">
<g clip-path="url(#clip0_562_1387)">
<path d="M6.09358 15.1038V6.00345H2.11707C1.55489 6.00434 1.01608 6.22842 0.619081 6.62643C0.222085 7.02444 -0.000593474 7.5638 1.18798e-06 8.12593V26.9376C1.18798e-06 27.8841 1.14255 28.3545 1.80903 27.6881L6.18319 23.3143H18.6392C18.9173 23.3145 19.1927 23.2599 19.4496 23.1536C19.7066 23.0473 19.9401 22.8914 20.1367 22.6948C20.3333 22.4982 20.4892 22.2647 20.5956 22.0078C20.7019 21.7508 20.7565 21.4755 20.7563 21.1974V17.2213H8.21626C7.65398 17.2219 7.11449 16.9991 6.71642 16.602C6.31836 16.205 6.09433 15.666 6.09358 15.1038Z" fill="#00AC47"/>
<path d="M24.73 0.000580502H8.21571C7.93763 0.00035956 7.66223 0.0549636 7.40528 0.161269C7.14832 0.267574 6.91485 0.423494 6.71822 0.620109C6.52158 0.816724 6.36565 1.05017 6.25934 1.30711C6.15302 1.56404 6.09841 1.83941 6.09863 2.11746V6.00402H18.6386C18.9165 6.00409 19.1917 6.05892 19.4484 6.16535C19.7051 6.27179 19.9383 6.42776 20.1347 6.62434C20.3311 6.82093 20.4868 7.05428 20.593 7.31106C20.6992 7.56785 20.7537 7.84304 20.7535 8.1209V17.2157H24.73C25.0081 17.2159 25.2835 17.1613 25.5404 17.055C25.7974 16.9487 26.0308 16.7928 26.2275 16.5961C26.4241 16.3995 26.58 16.1661 26.6864 15.9091C26.7927 15.6522 26.8473 15.3768 26.8471 15.0988V2.1169C26.8472 1.8389 26.7925 1.56359 26.6862 1.30672C26.5798 1.04985 26.4239 0.816467 26.2273 0.619911C26.0306 0.423356 25.7972 0.267485 25.5403 0.161215C25.2834 0.0549452 25.008 0.000359646 24.73 0.000580502Z" fill="#5BB974"/>
<path d="M18.6394 6.00345H6.09375V15.0982C6.09353 15.3763 6.14814 15.6516 6.25445 15.9086C6.36077 16.1655 6.5167 16.399 6.71333 16.5956C6.90997 16.7922 7.14344 16.9481 7.40039 17.0544C7.65735 17.1607 7.93274 17.2153 8.21082 17.2151H20.7508V8.12593C20.7522 7.84775 20.6987 7.57204 20.5932 7.31463C20.4877 7.05721 20.3324 6.82317 20.1362 6.62595C19.94 6.42873 19.7068 6.2722 19.4499 6.16538C19.193 6.05855 18.9176 6.00352 18.6394 6.00345Z" fill="#00832D"/>
</g>
<defs>
<clipPath id="clip0_562_1387">
<rect width="26.8475" height="28" fill="white"/>
</clipPath>
</defs>
</svg>
