<svg width="29" height="28" viewBox="0 0 29 28" fill="none" xmlns="http://www.w3.org/2000/svg">
<g clip-path="url(#clip0_562_1402)">
<path d="M20.1701 10.934H26.9222C27.5602 10.934 28.0773 11.488 28.0773 12.1713V18.759C28.0773 21.2703 26.1767 23.3062 23.8322 23.3062H23.8121C21.4676 23.3065 19.5667 21.271 19.5664 18.7597V11.5808C19.5664 11.4958 19.582 11.4117 19.6123 11.3333C19.6427 11.2548 19.6871 11.1835 19.7432 11.1235C19.7992 11.0634 19.8658 11.0158 19.939 10.9833C20.0123 10.9507 20.0908 10.934 20.1701 10.934Z" fill="#5059C9"/>
<path d="M24.7337 9.63182C26.2446 9.63182 27.4694 8.3199 27.4694 6.70156C27.4694 5.08322 26.2446 3.7713 24.7337 3.7713C23.2228 3.7713 21.998 5.08322 21.998 6.70156C21.998 8.3199 23.2228 9.63182 24.7337 9.63182Z" fill="#5059C9"/>
<path d="M16.223 9.63182C18.4054 9.63182 20.1745 7.73683 20.1745 5.39924C20.1745 3.06165 18.4054 1.16666 16.223 1.16666C14.0406 1.16666 12.2715 3.06165 12.2715 5.39924C12.2715 7.73683 14.0406 9.63182 16.223 9.63182Z" fill="#7B83EB"/>
<path d="M21.4913 10.934H10.3457C9.71539 10.9508 9.21678 11.5111 9.23139 12.1863V19.7C9.14336 23.7516 12.1359 27.1139 15.9185 27.2131C19.701 27.1139 22.6936 23.7516 22.6057 19.7V12.1863C22.6203 11.5111 22.1216 10.9508 21.4913 10.934Z" fill="#7B83EB"/>
<path opacity="0.1" d="M16.5269 10.934V21.4633C16.5255 21.6995 16.4589 21.9299 16.3356 22.1257C16.2123 22.3215 16.0378 22.4739 15.8339 22.5638C15.7011 22.624 15.5585 22.6549 15.4144 22.6549H9.76672C9.68769 22.44 9.61478 22.2251 9.55392 22.0038C9.34112 21.2566 9.23256 20.4799 9.23176 19.6987V12.1843C9.21716 11.5102 9.71495 10.9508 10.3443 10.9341H16.5268L16.5269 10.934Z" fill="black"/>
<path opacity="0.2" d="M15.9187 10.934V22.1145C15.9187 22.2689 15.8898 22.4216 15.8337 22.5638C15.7497 22.7822 15.6074 22.9692 15.4246 23.1012C15.2419 23.2333 15.0267 23.3046 14.8062 23.3062H10.0524C9.94909 23.0912 9.85178 22.8763 9.76672 22.6549C9.68501 22.4421 9.61397 22.2248 9.55392 22.0038C9.34112 21.2566 9.23256 20.4799 9.23176 19.6987V12.1843C9.21716 11.5102 9.71495 10.9508 10.3443 10.9341H15.9188L15.9187 10.934Z" fill="black"/>
<path opacity="0.2" d="M15.9188 10.934V20.8122C15.9142 21.4682 15.4189 21.9989 14.8063 22.0038H9.55392C9.34112 21.2566 9.23256 20.4799 9.23176 19.6987V12.1843C9.21716 11.5102 9.71495 10.9508 10.3443 10.9341H15.9188V10.934Z" fill="black"/>
<path opacity="0.2" d="M15.311 10.934V20.8122C15.3063 21.4682 14.8109 21.9989 14.1985 22.0038H9.55392C9.34112 21.2566 9.23256 20.4799 9.23176 19.6987V12.1843C9.21716 11.5102 9.71495 10.9508 10.3443 10.9341H15.311V10.934Z" fill="black"/>
<path opacity="0.1" d="M16.5269 7.56758V9.61869C16.4236 9.62525 16.3262 9.63181 16.2229 9.63181C16.1196 9.63181 16.0223 9.62525 15.9189 9.61869C15.7137 9.60412 15.5102 9.56926 15.3111 9.51456C14.7042 9.36062 14.1399 9.05499 13.6644 8.62267C13.1889 8.19034 12.8158 7.6436 12.5754 7.02716C12.4915 6.81715 12.4264 6.59911 12.3809 6.37595H15.4144C16.0278 6.37846 16.5245 6.91046 16.5269 7.56758Z" fill="black"/>
<path opacity="0.2" d="M15.9186 8.21869V9.61869C15.7134 9.60412 15.51 9.56926 15.3108 9.51456C14.7039 9.3606 14.1396 9.05496 13.6642 8.62264C13.1887 8.19032 12.8156 7.64359 12.5752 7.02716H14.8061C15.4196 7.02957 15.9163 7.56167 15.9186 8.21869Z" fill="black"/>
<path opacity="0.2" d="M15.9186 8.21869V9.61869C15.7134 9.60412 15.51 9.56926 15.3108 9.51456C14.7039 9.3606 14.1396 9.05496 13.6642 8.62264C13.1887 8.19032 12.8156 7.64359 12.5752 7.02716H14.8061C15.4196 7.02957 15.9163 7.56167 15.9186 8.21869Z" fill="black"/>
<path opacity="0.2" d="M15.3109 8.21871V9.51458C14.704 9.36062 14.1397 9.05498 13.6642 8.62263C13.1887 8.19029 12.8156 7.64353 12.5752 7.02707H14.1984C14.8118 7.02958 15.3085 7.56169 15.3109 8.21871Z" fill="black"/>
<path d="M3.05087 7.02709H14.1963C14.8119 7.02709 15.3108 7.56149 15.3108 8.22069V20.1591C15.3108 20.8183 14.8119 21.3527 14.1964 21.3527H3.05087C2.43544 21.3527 1.93652 20.8183 1.93652 20.1591V8.2208C1.93652 7.56138 2.43544 7.02698 3.05087 7.02698V7.02709Z" fill="url(#paint0_linear_562_1402)"/>
<path d="M11.5566 11.5709H9.32852V18.0695H7.90906V11.5709H5.69141V10.3103H11.5566V11.5709Z" fill="white"/>
</g>
<defs>
<linearGradient id="paint0_linear_562_1402" x1="4.2599" y1="6.09438" x2="13.9175" y2="21.71" gradientUnits="userSpaceOnUse">
<stop stop-color="#5A62C3"/>
<stop offset="0.5" stop-color="#4D55BD"/>
<stop offset="1" stop-color="#3940AB"/>
</linearGradient>
<clipPath id="clip0_562_1402">
<rect width="28" height="28" fill="white" transform="translate(0.847656)"/>
</clipPath>
</defs>
</svg>
