<svg width="13" height="12" viewBox="0 0 13 12" fill="none" xmlns="http://www.w3.org/2000/svg">
<path d="M6.99651 5.63766e-06C5.87396 -0.00153292 4.77349 0.311872 3.82018 0.904599C2.86687 1.49732 2.09896 2.3456 1.60373 3.35301C1.1085 4.36041 0.905811 5.48654 1.0187 6.6034C1.13159 7.72026 1.55554 8.78306 2.24235 9.67098C2.92916 10.5589 3.85129 11.2364 4.90393 11.6263C5.95657 12.0163 7.09749 12.1031 8.19703 11.877C9.29656 11.6508 10.3106 11.1208 11.1239 10.347C11.9372 9.57329 12.5171 8.58691 12.7978 7.50001H11.237C10.962 8.2779 10.4784 8.96521 9.83906 9.4868C9.19975 10.0084 8.42935 10.3442 7.61207 10.4574C6.7948 10.5707 5.96211 10.457 5.20506 10.129C4.448 9.8009 3.79572 9.271 3.31951 8.59721C2.84331 7.92341 2.56152 7.13167 2.50496 6.30852C2.44839 5.48538 2.61922 4.66253 2.99877 3.92993C3.37833 3.19732 3.95199 2.58318 4.65705 2.15462C5.36211 1.72607 6.17142 1.49961 6.99651 1.50001C7.58667 1.50087 8.17073 1.61937 8.71455 1.8486C9.25838 2.07782 9.75105 2.41316 10.1638 2.83501L7.75026 5.25001H13.0003V5.63766e-06L11.237 1.76251C10.6814 1.20352 10.0207 0.759998 9.29288 0.457505C8.5651 0.155013 7.78465 -0.000473216 6.99651 5.63766e-06V5.63766e-06Z" fill="#4876EB"/>
</svg>
