<svg width="24" height="24" viewBox="0 0 24 24" fill="none" xmlns="http://www.w3.org/2000/svg">
<g clip-path="url(#clip0_1002_3665)">
<path fill-rule="evenodd" clip-rule="evenodd" d="M21.2606 16.926C20.7791 17.4075 19.9381 17.4075 19.4571 16.926C19.2294 16.6845 19.1048 16.3638 19.1097 16.032C19.1145 15.7001 19.2485 15.3832 19.4831 15.1485C19.7178 14.9138 20.0347 14.7797 20.3665 14.7748C20.6984 14.7698 21.0191 14.8944 21.2606 15.122C21.5011 15.3625 21.6341 15.6835 21.6341 16.024C21.6341 16.365 21.5011 16.6855 21.2606 16.926ZM12.6476 21.627C12.4082 21.8658 12.0838 21.9998 11.7456 21.9998C11.4075 21.9998 11.0831 21.8658 10.8436 21.627C10.7249 21.5088 10.6307 21.3682 10.5666 21.2134C10.5025 21.0586 10.4697 20.8926 10.4701 20.725C10.4701 20.384 10.6031 20.0635 10.8436 19.823C10.9618 19.7041 11.1023 19.6099 11.2572 19.5458C11.412 19.4817 11.578 19.4489 11.7456 19.4495C12.0861 19.4495 12.4071 19.582 12.6476 19.823C12.8865 20.0624 13.0207 20.3868 13.0207 20.725C13.0207 21.0632 12.8865 21.3876 12.6476 21.627ZM10.8436 11.3685C10.962 11.25 11.1026 11.156 11.2574 11.092C11.4122 11.028 11.5781 10.9952 11.7456 10.9955C12.0721 10.9955 12.3986 11.12 12.6476 11.3685C12.8865 11.6079 13.0207 11.9323 13.0207 12.2705C13.0207 12.6087 12.8865 12.9331 12.6476 13.1725C12.1666 13.654 11.3251 13.654 10.8436 13.1725C10.6047 12.9331 10.4706 12.6087 10.4706 12.2705C10.4706 11.9323 10.6047 11.6079 10.8436 11.3685ZM10.4701 3.2755C10.4701 2.935 10.6031 2.6145 10.8436 2.374C10.9617 2.25505 11.1023 2.16074 11.2571 2.09654C11.412 2.03234 11.578 1.99952 11.7456 2C11.9977 2.00058 12.244 2.07576 12.4534 2.21605C12.6628 2.35635 12.8261 2.55549 12.9225 2.78838C13.019 3.02128 13.0443 3.27751 12.9954 3.5248C12.9465 3.77209 12.8255 3.99937 12.6476 4.178C12.4082 4.41677 12.0838 4.55085 11.7456 4.55085C11.4075 4.55085 11.0831 4.41677 10.8436 4.178C10.7249 4.05967 10.6308 3.91899 10.5666 3.76409C10.5025 3.6092 10.4697 3.44314 10.4701 3.2755ZM2.87263 18.426C2.63374 18.1866 2.49958 17.8622 2.49958 17.524C2.49958 17.1858 2.63374 16.8614 2.87263 16.622C2.991 16.5035 3.13162 16.4095 3.28641 16.3455C3.44121 16.2815 3.60712 16.2487 3.77463 16.249C4.10163 16.249 4.42813 16.3735 4.67663 16.622C5.03663 16.9815 5.13163 17.5035 4.97163 17.954L4.89663 18.119C4.83916 18.2318 4.76499 18.3353 4.67663 18.426C4.43716 18.6648 4.11279 18.7988 3.77463 18.7988C3.43647 18.7988 3.1121 18.6648 2.87263 18.426ZM2.87263 7.5745C2.99102 7.45605 3.13166 7.36216 3.28645 7.29823C3.44125 7.23431 3.60715 7.2016 3.77463 7.202C4.10163 7.202 4.42813 7.326 4.67663 7.5745C4.9154 7.81397 5.04947 8.13834 5.04947 8.4765C5.04947 8.81466 4.9154 9.13903 4.67663 9.3785C4.43716 9.61727 4.11279 9.75135 3.77463 9.75135C3.43647 9.75135 3.1121 9.61727 2.87263 9.3785C2.63374 9.1391 2.49958 8.8147 2.49958 8.4765C2.49958 8.1383 2.63374 7.81391 2.87263 7.5745ZM19.4576 5.5745C19.5759 5.45608 19.7163 5.36216 19.8709 5.29815C20.0256 5.23415 20.1913 5.2013 20.3586 5.2015C20.6856 5.2015 21.0121 5.326 21.2606 5.5745C21.4995 5.81391 21.6337 6.1383 21.6337 6.4765C21.6337 6.81471 21.4995 7.1391 21.2606 7.3785C20.7791 7.86 19.9381 7.86 19.4571 7.3785C19.218 7.13923 19.0837 6.81479 19.0837 6.4765C19.0837 6.13822 19.218 5.81378 19.4571 5.5745M21.9676 14.415C21.5408 13.9886 20.9622 13.749 20.3589 13.749C19.7556 13.749 19.1769 13.9886 18.7501 14.415C18.4373 14.7286 18.2227 15.1267 18.1327 15.5605C18.0428 15.9942 18.0813 16.4448 18.2436 16.857L13.7686 19.705C13.6633 19.4876 13.5235 19.2887 13.3546 19.116C13.0532 18.8157 12.6731 18.6067 12.2581 18.513V14.4825C12.6732 14.389 13.0534 14.1799 13.3546 13.8795C13.9311 13.3035 14.1261 12.493 13.9536 11.752L18.8646 8.1805C19.2959 8.56442 19.8579 8.76852 20.435 8.75085C21.0122 8.73318 21.5606 8.49508 21.9676 8.0855C22.3936 7.65837 22.6328 7.07975 22.6328 6.4765C22.6328 5.87325 22.3936 5.29463 21.9676 4.8675C21.5408 4.44105 20.9622 4.2015 20.3589 4.2015C19.7556 4.2015 19.1769 4.44105 18.7501 4.8675C18.429 5.18974 18.2119 5.60085 18.1267 6.04774C18.0416 6.49463 18.0924 6.95678 18.2726 7.3745L13.5031 10.8435C13.4541 10.7825 13.4116 10.718 13.3546 10.6615C13.0532 10.3617 12.673 10.1533 12.2581 10.0605V5.4855C12.6732 5.39305 13.0536 5.18483 13.3551 4.885C13.7812 4.45779 14.0204 3.87908 14.0204 3.27575C14.0204 2.67242 13.7812 2.09371 13.3551 1.6665C13.1443 1.4545 12.8934 1.28643 12.6171 1.17202C12.3409 1.05761 12.0447 0.999147 11.7456 1C11.4467 0.999158 11.1505 1.05763 10.8744 1.17204C10.5982 1.28645 10.3474 1.45451 10.1366 1.6665C9.92468 1.87732 9.75665 2.12807 9.64224 2.40425C9.52784 2.68044 9.46934 2.97656 9.47013 3.2755C9.46882 3.79408 9.64573 4.29736 9.97123 4.70105C10.2967 5.10474 10.7511 5.38434 11.2581 5.493V10.053C10.8336 10.1439 10.4442 10.3551 10.1366 10.6615C9.71064 11.0886 9.47141 11.6673 9.47141 12.2705C9.47141 12.8737 9.71064 13.4524 10.1366 13.8795C10.4439 14.1868 10.8333 14.3989 11.2581 14.4905V18.505C10.8333 18.5966 10.4439 18.8087 10.1366 19.116C9.98063 19.271 9.86013 19.4505 9.75713 19.6385L6.01013 17.9335C6.07698 17.5715 6.05488 17.1986 5.94575 16.847C5.83662 16.4954 5.64372 16.1756 5.38363 15.915C5.07525 15.6077 4.68454 15.3962 4.25863 15.306V10.695C4.68469 10.6049 5.07548 10.3932 5.38363 10.0855C5.80962 9.65838 6.04885 9.07975 6.04885 8.4765C6.04885 7.87325 5.80962 7.29463 5.38363 6.8675C4.95637 6.44175 4.3778 6.2027 3.77463 6.2027C3.17146 6.2027 2.59289 6.44175 2.16563 6.8675C1.73939 7.2945 1.5 7.87317 1.5 8.4765C1.5 9.07983 1.73939 9.6585 2.16563 10.0855C2.46613 10.3843 2.84479 10.5922 3.25813 10.6855V15.3155C2.84498 15.409 2.46642 15.6167 2.16563 15.915C1.73939 16.342 1.5 16.9207 1.5 17.524C1.5 18.1273 1.73939 18.706 2.16563 19.133C2.37669 19.3445 2.62752 19.5123 2.90366 19.6265C3.1798 19.7407 3.4758 19.7991 3.77463 19.7985C4.35713 19.7985 4.93963 19.577 5.38363 19.133C5.47113 19.0455 5.54363 18.949 5.61363 18.8515L9.48113 20.611C9.47963 20.649 9.47013 20.6865 9.47013 20.725C9.47013 21.3325 9.70713 21.9045 10.1366 22.334C10.3478 22.5455 10.5986 22.7131 10.8747 22.8273C11.1508 22.9415 11.4468 23 11.7456 22.9995C12.0444 23 12.3404 22.9414 12.6165 22.8272C12.8926 22.713 13.1435 22.5454 13.3546 22.334C13.7803 21.9089 14.0196 21.3321 14.0201 20.7305L18.8101 17.6825C19.2285 18.0785 19.7826 18.2993 20.3586 18.2995C20.6576 18.3003 20.9537 18.2419 21.2299 18.1275C21.5061 18.0131 21.7568 17.845 21.9676 17.633C22.1796 17.4222 22.3477 17.1715 22.4621 16.8953C22.5765 16.6191 22.635 16.3229 22.6341 16.024C22.6349 15.7251 22.5764 15.4289 22.462 15.1528C22.3476 14.8766 22.1796 14.6258 21.9676 14.415Z" fill="#4D27AA"/>
</g>
<defs>
<clipPath id="clip0_1002_3665">
<rect width="24" height="24" fill="white"/>
</clipPath>
</defs>
</svg>
