<svg width="24" height="24" viewBox="0 0 24 24" fill="none" xmlns="http://www.w3.org/2000/svg">
<g clip-path="url(#clip0_1002_2915)">
<g clip-path="url(#clip1_1002_2915)">
<path fill-rule="evenodd" clip-rule="evenodd" d="M0 0H24V24H0V0Z" fill="url(#paint0_linear_1002_2915)"/>
<path fill-rule="evenodd" clip-rule="evenodd" d="M15.8896 14.8212V10.1268L12.2794 12.1674V16.9284L15.8896 14.8212V14.8212ZM8.08962 14.8212L11.6794 16.9272V12.1668L8.08962 10.128V14.8212ZM8.39562 9.6114L11.98 11.6472L15.5806 9.6114L11.98 7.5642L8.39562 9.6114V9.6114ZM16.3408 15.2526L12.1306 17.7102C12.0845 17.7368 12.0322 17.7507 11.979 17.7506C11.9258 17.7505 11.8736 17.7363 11.8276 17.7096L7.63782 15.252C7.59272 15.2255 7.55533 15.1878 7.52933 15.1424C7.50334 15.097 7.48965 15.0457 7.48962 14.9934V9.612C7.48962 9.5046 7.54782 9.405 7.64082 9.3516L11.8306 6.9588C11.8758 6.93293 11.927 6.91927 11.979 6.91916C12.0311 6.91906 12.0823 6.93251 12.1276 6.9582L16.3378 9.3522C16.3837 9.37835 16.4219 9.41613 16.4486 9.46174C16.4752 9.50735 16.4894 9.55917 16.4896 9.612V14.9934C16.4895 15.0458 16.4757 15.0973 16.4496 15.1428C16.4235 15.1882 16.386 15.2261 16.3408 15.2526V15.2526ZM11.9992 4.8006C14.4214 4.8006 16.681 6.0936 18.0454 8.2614L18.5524 7.941C17.0782 5.5986 14.6284 4.2 11.9992 4.2C9.36822 4.2 6.91842 5.598 5.44542 7.9416L5.95242 8.2614C7.31562 6.0936 9.57582 4.8 11.9992 4.8V4.8006ZM19.1992 12.2952C19.1176 15.642 16.6948 18.5502 13.4392 19.2114L13.5586 19.8C17.086 19.0842 19.7104 15.9342 19.7992 12.3102L19.1992 12.2952V12.2952ZM10.5586 19.212L10.4392 19.8C6.91182 19.0842 4.28742 15.9342 4.19922 12.3102L4.79922 12.2952C4.88022 15.642 7.30302 18.5502 10.5586 19.2114V19.212Z" fill="white"/>
</g>
</g>
<defs>
<linearGradient id="paint0_linear_1002_2915" x1="0" y1="24" x2="24" y2="0" gradientUnits="userSpaceOnUse">
<stop stop-color="#055F4E"/>
<stop offset="1" stop-color="#56C0A7"/>
</linearGradient>
<clipPath id="clip0_1002_2915">
<rect width="24" height="24" fill="white"/>
</clipPath>
<clipPath id="clip1_1002_2915">
<rect width="24" height="24" fill="white"/>
</clipPath>
</defs>
</svg>
