<svg width="24" height="24" viewBox="0 0 24 24" fill="none" xmlns="http://www.w3.org/2000/svg">
<g clip-path="url(#clip0_1002_2953)">
<g clip-path="url(#clip1_1002_2953)">
<path fill-rule="evenodd" clip-rule="evenodd" d="M0 0H24V24H0V0Z" fill="url(#paint0_linear_1002_2953)"/>
<path fill-rule="evenodd" clip-rule="evenodd" d="M7.71201 11.4876C7.76825 11.5439 7.79984 11.6201 7.79984 11.6997C7.79984 11.7792 7.76825 11.8555 7.71201 11.9118L5.61201 14.0118L5.18781 13.5876L6.77541 12H3.59961V11.4H6.77541L5.18781 9.8118L5.61201 9.3876L7.71201 11.4876ZM20.3996 12H17.2244L18.812 13.5876L18.3878 14.0118L16.2878 11.9118C16.2316 11.8555 16.2 11.7792 16.2 11.6997C16.2 11.6201 16.2316 11.5439 16.2878 11.4876L18.3878 9.3876L18.812 9.8118L17.2244 11.4H20.3996V12ZM14.1878 17.7876L14.612 18.2118L12.512 20.3118C12.4558 20.368 12.3795 20.3996 12.2999 20.3996C12.2204 20.3996 12.1441 20.368 12.0878 20.3118L9.98781 18.2118L10.412 17.7876L11.9996 19.3752V16.8H12.5996V19.3752L14.1878 17.7876ZM10.412 6.2118L9.98781 5.7876L12.0878 3.6876C12.1441 3.63136 12.2204 3.59976 12.2999 3.59976C12.3795 3.59976 12.4558 3.63136 12.512 3.6876L14.612 5.7876L14.1878 6.2118L12.5996 4.6242V7.2H11.9996V4.6242L10.412 6.2118V6.2118ZM14.3996 10.0758C14.0995 9.98842 13.7778 10.0149 13.496 10.1502C13.2694 10.2561 13.0866 10.4374 12.9788 10.6632C12.7898 11.064 12.8102 11.4984 13.0352 11.8536C13.1786 12.0728 13.3884 12.2403 13.634 12.3315C13.8796 12.4226 14.1479 12.4326 14.3996 12.36V13.8H12.8996C12.8396 13.7999 12.781 13.8179 12.7313 13.8515C12.6817 13.8852 12.6432 13.933 12.6211 13.9887C12.5989 14.0444 12.594 14.1056 12.6069 14.1641C12.6199 14.2227 12.6502 14.276 12.6938 14.3172C12.7748 14.3952 13.0298 14.6712 12.8696 14.9712C12.827 15.0498 12.752 15.156 12.6356 15.2112C12.3404 15.3492 12.1184 15.2556 12.011 15.1878C11.9265 15.1344 11.8569 15.0606 11.8087 14.9731C11.7604 14.8856 11.7351 14.7873 11.735 14.6874C11.735 14.5344 11.78 14.4378 11.906 14.3172C11.9494 14.2759 11.9794 14.2225 11.9922 14.164C12.0049 14.1055 11.9999 14.0444 11.9777 13.9888C11.9555 13.9332 11.9171 13.8854 11.8676 13.8518C11.818 13.8181 11.7595 13.8001 11.6996 13.8H9.59961V9.3C9.59961 9.1842 9.76401 9 9.89961 9H14.3996V10.0758ZM14.6996 8.4H9.89961C9.44601 8.4 8.99961 8.8458 8.99961 9.3V14.1C8.99961 14.1796 9.03122 14.2559 9.08748 14.3121C9.14374 14.3684 9.22004 14.4 9.29961 14.4H11.171C11.1101 14.6427 11.1274 14.8984 11.2203 15.1307C11.3133 15.363 11.4773 15.56 11.6888 15.6936C11.8856 15.8196 12.1064 15.882 12.3326 15.882C12.518 15.882 12.7076 15.84 12.8906 15.7542C13.1006 15.6552 13.2764 15.4824 13.3994 15.2532C13.5416 14.9862 13.5554 14.6838 13.4528 14.4H14.6996C14.7792 14.4 14.8555 14.3684 14.9117 14.3121C14.968 14.2559 14.9996 14.1796 14.9996 14.1V11.8332C14.9996 11.7734 14.9817 11.715 14.9483 11.6654C14.9148 11.6158 14.8673 11.5774 14.8119 11.555C14.7564 11.5326 14.6955 11.5273 14.637 11.5398C14.5785 11.5523 14.5251 11.5819 14.4836 11.625C14.2226 11.8974 13.7408 11.8452 13.5422 11.5332C13.4756 11.4282 13.385 11.2092 13.5218 10.9194C13.5696 10.8202 13.6501 10.7405 13.7498 10.6938C14.0204 10.5678 14.2934 10.611 14.4836 10.809C14.525 10.8523 14.5783 10.8823 14.6369 10.8949C14.6954 10.9076 14.7564 10.9024 14.812 10.8801C14.8675 10.8577 14.9151 10.8192 14.9486 10.7695C14.982 10.7199 14.9998 10.6613 14.9996 10.6014V8.7C14.9996 8.5338 14.8658 8.4 14.6996 8.4Z" fill="white"/>
</g>
</g>
<defs>
<linearGradient id="paint0_linear_1002_2953" x1="0" y1="24" x2="24" y2="0" gradientUnits="userSpaceOnUse">
<stop stop-color="#B0084D"/>
<stop offset="1" stop-color="#FF4F8B"/>
</linearGradient>
<clipPath id="clip0_1002_2953">
<rect width="24" height="24" fill="white"/>
</clipPath>
<clipPath id="clip1_1002_2953">
<rect width="24" height="24" fill="white"/>
</clipPath>
</defs>
</svg>
