<svg width="24" height="24" viewBox="0 0 24 24" fill="none" xmlns="http://www.w3.org/2000/svg">
<g clip-path="url(#clip0_1002_2937)">
<g clip-path="url(#clip1_1002_2937)">
<path fill-rule="evenodd" clip-rule="evenodd" d="M0 0H24V24H0V0Z" fill="url(#paint0_linear_1002_2937)"/>
<path fill-rule="evenodd" clip-rule="evenodd" d="M15.521 11.2998C15.521 12.7884 14.3096 13.9998 12.821 13.9998C12.1052 13.999 11.4189 13.7143 10.9127 13.2081C10.4065 12.7019 10.1218 12.0156 10.121 11.2998C10.121 9.81121 11.3324 8.59981 12.821 8.59981C14.3096 8.59981 15.521 9.81121 15.521 11.2998ZM16.121 11.2998C16.121 9.48001 14.6402 7.99981 12.821 7.99981C11.9461 8.00076 11.1073 8.34874 10.4886 8.96741C9.86995 9.58607 9.52196 10.4249 9.52101 11.2998C9.52101 13.1196 11.0018 14.5998 12.821 14.5998C14.6402 14.5998 16.121 13.1196 16.121 11.2998ZM14.5004 18.9054C14.5284 18.8758 14.5501 18.8408 14.5641 18.8025C14.5782 18.7642 14.5842 18.7235 14.582 18.6828L14.5262 17.7072C15.0879 17.5577 15.6272 17.3341 16.13 17.0424L16.781 17.7726C16.8082 17.803 16.8413 17.8275 16.8783 17.8447C16.9153 17.8618 16.9555 17.8712 16.9962 17.8723C17.037 17.8735 17.0776 17.8663 17.1155 17.8512C17.1533 17.8361 17.1878 17.8134 17.2166 17.7846L19.2962 15.7044C19.3251 15.6757 19.3479 15.6413 19.3629 15.6034C19.378 15.5655 19.3851 15.525 19.3838 15.4842C19.3829 15.4433 19.3735 15.4031 19.3562 15.366C19.339 15.329 19.3143 15.2959 19.2836 15.2688L18.5522 14.616C18.8434 14.1138 19.0666 13.575 19.2158 13.014L20.1944 13.0704C20.2351 13.0727 20.2759 13.0666 20.3142 13.0526C20.3526 13.0386 20.3876 13.0169 20.4173 12.9889C20.4469 12.9609 20.4705 12.9271 20.4867 12.8896C20.5028 12.8522 20.5112 12.8118 20.5112 12.771V9.82921C20.5114 9.78836 20.5031 9.74791 20.4871 9.71036C20.471 9.67281 20.4473 9.63896 20.4176 9.6109C20.388 9.58284 20.3528 9.56117 20.3144 9.54722C20.276 9.53327 20.2352 9.52735 20.1944 9.52981L19.2146 9.58561C19.0646 9.02401 18.842 8.48761 18.551 7.98481L19.2836 7.33081C19.3143 7.30376 19.339 7.27065 19.3562 7.23358C19.3735 7.19652 19.3829 7.15628 19.3838 7.11541C19.3851 7.07466 19.378 7.03407 19.3629 6.99619C19.3479 6.95831 19.3251 6.92393 19.2962 6.89521L17.2166 4.81561C17.1572 4.75912 17.0784 4.72755 16.9964 4.72741C16.9556 4.7286 16.9154 4.7381 16.8784 4.75533C16.8414 4.77255 16.8082 4.79715 16.781 4.82761L16.1246 5.56261C15.6233 5.27223 15.0859 5.0493 14.5262 4.89961L14.582 3.91681C14.5844 3.87605 14.5784 3.83524 14.5644 3.79688C14.5504 3.75852 14.5288 3.72343 14.5007 3.69376C14.4727 3.66409 14.4389 3.64046 14.4014 3.62434C14.3638 3.60822 14.3234 3.59994 14.2826 3.60001H11.3408C11.3 3.60011 11.2597 3.60851 11.2223 3.62469C11.1849 3.64087 11.1511 3.6645 11.1231 3.69413C11.0951 3.72377 11.0734 3.75879 11.0594 3.79707C11.0453 3.83535 11.0392 3.87609 11.0414 3.91681L11.0978 4.89961C10.5374 5.04841 10.001 5.27041 9.49761 5.56141L8.84301 4.82761C8.8158 4.7973 8.78275 4.7728 8.74584 4.75558C8.70892 4.73837 8.66892 4.72878 8.62821 4.72741C8.54614 4.728 8.4673 4.75949 8.40741 4.81561L6.32721 6.89521C6.29805 6.92387 6.27512 6.95824 6.25983 6.99616C6.24454 7.03408 6.23723 7.07475 6.23836 7.11562C6.23949 7.15649 6.24902 7.19669 6.26637 7.23372C6.28372 7.27074 6.30852 7.30379 6.33921 7.33081L7.07361 7.98661C6.78235 8.48783 6.55899 9.02553 6.40941 9.58561L5.42901 9.52981C5.38822 9.52744 5.34738 9.53342 5.309 9.5474C5.27061 9.56137 5.23547 9.58304 5.20576 9.61107C5.17604 9.63911 5.15236 9.67291 5.13617 9.71042C5.11998 9.74793 5.11162 9.78835 5.11161 9.82921V12.771C5.11161 12.8532 5.14581 12.9324 5.20641 12.9888C5.23603 13.017 5.27113 13.0388 5.30953 13.0528C5.34793 13.0668 5.3888 13.0728 5.42961 13.0704L6.62961 12.9996L6.59421 12.4008L5.71161 12.4524V10.1472L6.62421 10.1988C6.69525 10.2039 6.76573 10.1831 6.82256 10.1402C6.8794 10.0972 6.91871 10.0351 6.93321 9.96541C7.08431 9.30001 7.3479 8.6653 7.71261 8.08861C7.75075 8.02864 7.76626 7.95703 7.75636 7.88666C7.74647 7.81628 7.71181 7.75173 7.65861 7.70461L6.97581 7.09501L8.60721 5.46421L9.21561 6.14701C9.26295 6.1999 9.32752 6.23429 9.39782 6.24407C9.46813 6.25385 9.53963 6.23837 9.59961 6.20041C10.1768 5.83652 10.812 5.57394 11.4776 5.42401C11.5469 5.40822 11.6082 5.36839 11.6509 5.31158C11.6935 5.25478 11.7146 5.1847 11.7104 5.11381L11.6588 4.20001H13.9646L13.913 5.11441C13.9091 5.18533 13.9304 5.25536 13.9731 5.31212C14.0158 5.36888 14.0772 5.40873 14.1464 5.42461C14.8124 5.57461 15.4436 5.83681 16.0226 6.20221C16.1468 6.28021 16.3088 6.25741 16.4066 6.14821L17.0168 5.46421L18.6476 7.09501L17.9654 7.70281C17.9125 7.75024 17.878 7.81486 17.8681 7.88524C17.8583 7.95562 17.8736 8.02723 17.9114 8.08741C18.2766 8.66428 18.5402 9.29947 18.6908 9.96541C18.7232 10.1082 18.8372 10.2132 19.0004 10.1988L19.9112 10.1472V12.453L19.001 12.4008C18.9304 12.3985 18.8611 12.4204 18.8048 12.463C18.7484 12.5056 18.7084 12.5662 18.6914 12.6348C18.5414 13.3012 18.2779 13.9368 17.9126 14.514C17.8747 14.5741 17.8593 14.6456 17.8692 14.7159C17.8791 14.7862 17.9136 14.8507 17.9666 14.898L18.6476 15.5052L17.0168 17.136L16.4114 16.4574C16.3642 16.4045 16.2998 16.37 16.2296 16.3601C16.1594 16.3502 16.088 16.3656 16.028 16.4034C15.4499 16.7688 14.8135 17.0324 14.1464 17.1828C14.0773 17.1987 14.016 17.2384 13.9733 17.2951C13.9306 17.3517 13.9092 17.4216 13.913 17.4924L13.9646 18.3996H11.6684L11.7104 17.9262L11.1128 17.8734L11.042 18.6732C11.0383 18.7147 11.0433 18.7564 11.0567 18.7958C11.0701 18.8353 11.0915 18.8715 11.1196 18.9022C11.1477 18.9329 11.1818 18.9574 11.2199 18.9742C11.258 18.9909 11.2992 18.9996 11.3408 18.9996H14.2826C14.3234 18.9995 14.3638 18.9911 14.4012 18.9749C14.4386 18.9587 14.4724 18.9351 14.5004 18.9054ZM11.2178 16.5174L10.8056 16.0818L7.00581 19.6818L7.41801 20.1174L11.2178 16.5174ZM7.61721 14.118L7.20621 13.6812L3.80601 16.881L4.21701 17.3184L7.61721 14.118ZM4.02381 20.5122L3.59961 20.0874L9.59961 14.0874L10.0238 14.5122L4.02381 20.5122Z" fill="white"/>
</g>
</g>
<defs>
<linearGradient id="paint0_linear_1002_2937" x1="0" y1="24" x2="24" y2="0" gradientUnits="userSpaceOnUse">
<stop stop-color="#B0084D"/>
<stop offset="1" stop-color="#FF4F8B"/>
</linearGradient>
<clipPath id="clip0_1002_2937">
<rect width="24" height="24" fill="white"/>
</clipPath>
<clipPath id="clip1_1002_2937">
<rect width="24" height="24" fill="white"/>
</clipPath>
</defs>
</svg>
