<svg width="24" height="24" viewBox="0 0 24 24" fill="none" xmlns="http://www.w3.org/2000/svg">
<path fill-rule="evenodd" clip-rule="evenodd" d="M0 0H24V24H0V0Z" fill="url(#paint0_linear_1002_2894)"/>
<path fill-rule="evenodd" clip-rule="evenodd" d="M9.0008 12.6012H12.0008V11.9982H9.0008V12.6012ZM9.0008 11.3946H15.6008V10.791H9.0008V11.3946ZM9.0008 10.1874H14.4008V9.58381H9.0008V10.1874ZM12.0008 6.01441C9.3542 6.01441 7.2008 8.18041 7.2008 10.8426C7.2008 12.783 8.3318 14.5206 10.082 15.27L10.1996 15.3066C10.3352 15.3504 10.493 15.4026 10.637 15.4554L11.8202 15.8898C11.9384 15.933 12.017 16.0458 12.017 16.173V17.703C14.8958 16.3716 16.8008 13.665 16.8008 10.8432C16.8008 8.18101 14.6474 6.01441 12.0008 6.01441ZM11.717 18.4632C11.6372 18.4629 11.5608 18.4309 11.5046 18.3744C11.4483 18.3178 11.4168 18.2412 11.417 18.1614V16.3842L10.4312 16.0218C10.2933 15.9723 10.1545 15.9255 10.0148 15.8814L9.87199 15.834C7.8752 14.982 6.6008 13.026 6.6008 10.8426C6.6008 7.84741 9.023 5.41081 12.0008 5.41081C14.9786 5.41081 17.4008 7.84681 17.4008 10.8426C17.4008 14.0406 15.1622 17.0946 11.8292 18.4416C11.7935 18.4559 11.7554 18.4632 11.717 18.4632ZM12.0008 4.20361C8.3618 4.20361 5.4008 7.18141 5.4008 10.8426C5.4008 13.5114 6.9824 15.912 9.4298 16.9566C9.47 16.9746 9.5516 16.9998 9.6488 17.031C9.7634 17.0676 9.8984 17.112 10.0202 17.1558C10.078 17.1774 10.1279 17.2161 10.1631 17.2668C10.1983 17.3176 10.2171 17.3779 10.217 17.4396V20.2668L10.9022 20.0148C15.3746 18.8526 18.6008 14.9988 18.6008 10.8426C18.6008 7.18141 15.6398 4.20361 12.0008 4.20361ZM9.917 21C9.87745 21 9.83829 20.9922 9.80177 20.977C9.76526 20.9618 9.73211 20.9395 9.70422 20.9115C9.67634 20.8835 9.65428 20.8502 9.63931 20.8136C9.62434 20.777 9.61676 20.7378 9.617 20.6982V17.655C9.56655 17.6381 9.51595 17.6217 9.4652 17.6058C9.37422 17.5777 9.28418 17.5467 9.1952 17.5128C7.889 16.9547 6.77588 16.0247 5.99448 14.8385C5.21308 13.6523 4.79795 12.2624 4.8008 10.842C4.8008 6.84901 8.0306 3.60001 12.0008 3.60001C15.971 3.60001 19.2008 6.84901 19.2008 10.8426C19.2008 15.27 15.7856 19.3692 11.0804 20.5908L10.0202 20.982C9.9871 20.994 9.95218 21.0001 9.917 21Z" fill="white"/>
<defs>
<linearGradient id="paint0_linear_1002_2894" x1="0" y1="24" x2="24" y2="0" gradientUnits="userSpaceOnUse">
<stop stop-color="#BD0816"/>
<stop offset="1" stop-color="#FF5252"/>
</linearGradient>
</defs>
</svg>
