<svg width="24" height="24" viewBox="0 0 24 24" fill="none" xmlns="http://www.w3.org/2000/svg">
<g clip-path="url(#clip0_1002_3685)">
<path fill-rule="evenodd" clip-rule="evenodd" d="M0 0H24V24H0V0Z" fill="url(#paint0_linear_1002_3685)"/>
<path fill-rule="evenodd" clip-rule="evenodd" d="M10.4078 11.136H12.7178L11.1296 13.677C11.1012 13.7224 11.0855 13.7746 11.0841 13.8281C11.0827 13.8817 11.0957 13.9346 11.1216 13.9814C11.1476 14.0283 11.1856 14.0673 11.2317 14.0945C11.2779 14.1217 11.3305 14.136 11.384 14.136H12.4022L9.74541 17.712L10.2254 15.09C10.2334 15.0467 10.2318 15.0022 10.2207 14.9596C10.2095 14.9171 10.1892 14.8775 10.161 14.8437C10.1328 14.8099 10.0975 14.7827 10.0576 14.7641C10.0177 14.7455 9.97422 14.7359 9.93021 14.736H8.44461L10.4078 11.136ZM9.45981 19.1028L13.2398 14.0148C13.2725 13.97 13.2922 13.9171 13.2967 13.8619C13.3013 13.8066 13.2905 13.7512 13.2655 13.7017C13.2406 13.6522 13.2025 13.6105 13.1554 13.5813C13.1083 13.552 13.054 13.5364 12.9986 13.536H11.9252L13.5134 10.995C13.5418 10.9496 13.5575 10.8974 13.5589 10.8439C13.5603 10.7903 13.5474 10.7374 13.5214 10.6906C13.4954 10.6437 13.4574 10.6047 13.4113 10.5775C13.3651 10.5503 13.3126 10.536 13.259 10.536H10.2296C10.1204 10.536 10.019 10.596 9.96681 10.6926L7.67541 14.8926C7.65036 14.9383 7.63766 14.9897 7.63855 15.0417C7.63944 15.0938 7.6539 15.1447 7.6805 15.1895C7.7071 15.2343 7.74491 15.2713 7.79021 15.297C7.83551 15.3227 7.88673 15.3362 7.93881 15.336H9.57021L8.92341 18.87C8.91165 18.9365 8.92265 19.0051 8.95465 19.0646C8.98664 19.1242 9.03776 19.1712 9.09974 19.1981C9.16173 19.225 9.23098 19.2302 9.29631 19.2129C9.36164 19.1956 9.41924 19.1568 9.45981 19.1028V19.1028ZM17.4194 15.2784L14.1824 15.2766V14.7366H17.3954C17.4698 14.7282 19.7996 14.4438 19.7996 12.0354C19.7996 10.0152 18.134 9.5106 17.4182 9.387C17.3412 9.37387 17.2724 9.33124 17.2263 9.26816C17.1803 9.20508 17.1607 9.12653 17.1716 9.0492C17.111 8.142 16.6778 7.4676 16.016 7.2738C15.4712 7.1136 14.888 7.3248 14.5286 7.8108C14.4959 7.85428 14.4522 7.88823 14.402 7.90912C14.3518 7.93001 14.2969 7.93708 14.243 7.9296C14.1891 7.92141 14.1385 7.89878 14.0965 7.86414C14.0544 7.82949 14.0225 7.7841 14.0042 7.7328C13.7576 7.0332 13.3988 6.4452 12.9398 5.9844C12.3764 5.4192 10.8278 4.2036 8.64561 5.1276C7.38381 5.6622 6.39561 7.2018 6.39561 8.6322C6.39561 8.7942 6.40521 8.9532 6.42321 9.1092C6.43187 9.1815 6.41394 9.25448 6.37276 9.31454C6.33159 9.37459 6.26997 9.41762 6.19941 9.4356C5.45301 9.6258 4.19961 10.2132 4.19961 12.0108C4.19961 12.1038 4.20321 12.195 4.21041 12.2826C4.27041 13.0428 4.51521 14.0388 5.34501 14.4696C5.43621 14.5086 5.87001 14.5614 6.07821 14.5872C6.23481 14.607 6.36981 14.6238 6.44001 14.6376L6.32481 15.2262C6.26241 15.2142 6.14301 15.1998 6.00441 15.183C5.47041 15.117 5.20881 15.075 5.06841 15.0018C4.23021 14.5674 3.71301 13.6182 3.61281 12.33C3.60408 12.2238 3.59968 12.1173 3.59961 12.0108C3.59961 9.9546 4.98981 9.1944 5.80461 8.925C5.79828 8.82753 5.79527 8.72987 5.79561 8.6322C5.79561 6.951 6.92061 5.2074 8.41161 4.575C10.16 3.8352 12.0122 4.203 13.3652 5.5608C13.7982 6.00175 14.1463 6.51854 14.3924 7.0854C14.8934 6.666 15.5534 6.513 16.184 6.6978C17.0474 6.9504 17.6252 7.746 17.7548 8.844C18.6002 9.042 20.3996 9.735 20.3996 12.036C20.3996 15.0018 17.4488 15.276 17.4194 15.2784Z" fill="white"/>
</g>
<defs>
<linearGradient id="paint0_linear_1002_3685" x1="0" y1="24" x2="24" y2="0" gradientUnits="userSpaceOnUse">
<stop stop-color="#1B660F"/>
<stop offset="1" stop-color="#6CAE3E"/>
</linearGradient>
<clipPath id="clip0_1002_3685">
<rect width="24" height="24" fill="white"/>
</clipPath>
</defs>
</svg>
