<svg width="24" height="24" viewBox="0 0 24 24" fill="none" xmlns="http://www.w3.org/2000/svg">
<g clip-path="url(#clip0_1002_3699)">
<path fill-rule="evenodd" clip-rule="evenodd" d="M0 0H24V24H0V0Z" fill="url(#paint0_linear_1002_3699)"/>
<path fill-rule="evenodd" clip-rule="evenodd" d="M17.2094 16.1124L18.401 14.9124C18.4568 14.8559 18.4881 14.7797 18.4881 14.7003C18.4881 14.6209 18.4568 14.5447 18.401 14.4882L17.2094 13.2882L16.7888 13.7124L17.7686 14.7L16.7888 15.6882L17.2094 16.1124ZM13.2158 16.1124L13.6364 15.6882L12.6566 14.7L13.6364 13.7124L13.2158 13.2882L12.0242 14.4882C11.9684 14.5447 11.9371 14.6209 11.9371 14.7003C11.9371 14.7797 11.9684 14.8559 12.0242 14.9124L13.2158 16.1124ZM19.955 6.6L18.071 4.8H17.7182L15.932 6.6H19.955ZM16.8758 4.8H13.5494L15.2126 6.4758L16.8758 4.8ZM15.2126 10.221L12.0908 11.4H18.3344L15.2126 10.221ZM10.7456 17.4H19.6796V12H10.7456V17.4ZM14.4938 6.6L12.83 4.9248L11.168 6.6H14.4938ZM10.4258 6.4986L12.1118 4.8H8.31981L10.4258 6.4986ZM9.59961 6.6L7.48161 4.893L5.58021 6.6H9.59961ZM8.36361 7.2H5.91141L8.36361 9.2598V7.2ZM8.36361 10.6248L5.52981 13.4802L8.36361 15.8598V10.6248ZM8.36361 17.1666L5.41281 19.8H8.36361V17.1666ZM5.38641 19.0224L8.20461 16.5072L5.38641 14.1408V19.0224ZM5.38641 12.7758L8.22081 9.9204L5.38641 7.5408V12.7758ZM5.38641 5.9712L6.68901 4.8H5.38641V5.9712ZM4.19541 7.2H4.79061V4.2H4.19541V7.2ZM20.9786 7.0116C20.9567 7.06712 20.9186 7.11477 20.8693 7.14836C20.82 7.18196 20.7617 7.19995 20.702 7.2H15.5096V9.6924L20.081 11.4192L20.0804 11.4216C20.1932 11.4642 20.2736 11.5716 20.2736 11.7V17.7C20.2736 17.8662 20.141 18 19.976 18H10.448C10.4087 17.9999 10.3698 17.9921 10.3336 17.977C10.2973 17.9618 10.2644 17.9397 10.2367 17.9118C10.209 17.884 10.1871 17.8509 10.1722 17.8146C10.1572 17.7782 10.1497 17.7393 10.1498 17.7V11.7C10.1498 11.5716 10.2308 11.4642 10.3442 11.4216L10.3436 11.4192L14.9138 9.6924V7.2H8.95881V20.1C8.95881 20.2662 8.82621 20.4 8.66121 20.4H5.08761C5.04837 20.3998 5.00955 20.392 4.97336 20.3768C4.93717 20.3616 4.90431 20.3395 4.87668 20.3116C4.84904 20.2838 4.82717 20.2507 4.8123 20.2144C4.79743 20.1781 4.78985 20.1392 4.79001 20.1V7.8H3.89721C3.85797 7.79984 3.81915 7.79196 3.78296 7.77679C3.74677 7.76163 3.71391 7.73949 3.68628 7.71163C3.65864 7.68378 3.63677 7.65075 3.6219 7.61444C3.60703 7.57812 3.59945 7.53924 3.59961 7.5V3.9C3.59961 3.7344 3.73281 3.6 3.89721 3.6H5.08821C5.25321 3.6 5.38641 3.7344 5.38641 3.9V4.2H18.1898C18.266 4.2 18.3398 4.23 18.395 4.2828L20.9066 6.6828C20.9948 6.7668 21.0236 6.8976 20.9786 7.0116ZM14.5952 17.112L14.0432 16.8888L15.6314 12.8886L16.1834 13.1118L14.5952 17.112Z" fill="white"/>
</g>
<defs>
<linearGradient id="paint0_linear_1002_3699" x1="0" y1="24" x2="24" y2="0" gradientUnits="userSpaceOnUse">
<stop stop-color="#2E27AD"/>
<stop offset="1" stop-color="#527FFF"/>
</linearGradient>
<clipPath id="clip0_1002_3699">
<rect width="24" height="24" fill="white"/>
</clipPath>
</defs>
</svg>
