<svg width="24" height="24" viewBox="0 0 24 24" fill="none" xmlns="http://www.w3.org/2000/svg">
<g clip-path="url(#clip0_1002_3671)">
<path fill-rule="evenodd" clip-rule="evenodd" d="M0 0H24V24H0V0Z" fill="url(#paint0_linear_1002_3671)"/>
<path fill-rule="evenodd" clip-rule="evenodd" d="M15.291 16.8318C15.1365 16.8249 14.9906 16.7587 14.8838 16.6469C14.7769 16.5351 14.7172 16.3864 14.7172 16.2318C14.7172 16.0772 14.7769 15.9285 14.8838 15.8167C14.9906 15.7049 15.1365 15.6387 15.291 15.6318C15.4455 15.6387 15.5914 15.7049 15.6982 15.8167C15.8051 15.9285 15.8648 16.0772 15.8648 16.2318C15.8648 16.3864 15.8051 16.5351 15.6982 16.6469C15.5914 16.7587 15.4455 16.8249 15.291 16.8318ZM12.6024 16.2318C12.6024 16.5624 12.333 16.8318 12.003 16.8318C11.8439 16.8318 11.6913 16.7686 11.5787 16.6561C11.4662 16.5435 11.403 16.3909 11.403 16.2318C11.403 16.0727 11.4662 15.9201 11.5787 15.8075C11.6913 15.695 11.8439 15.6318 12.003 15.6318C12.333 15.6318 12.6024 15.9012 12.6024 16.2318ZM9.3036 16.2318C9.30372 16.3506 9.26858 16.4668 9.20263 16.5657C9.13668 16.6646 9.04289 16.7416 8.93312 16.7872C8.82335 16.8327 8.70254 16.8446 8.58598 16.8215C8.46942 16.7983 8.36234 16.7411 8.27831 16.6571C8.19428 16.5731 8.13707 16.466 8.11391 16.3494C8.09076 16.2329 8.1027 16.1121 8.14823 16.0023C8.19377 15.8925 8.27084 15.7987 8.3697 15.7328C8.46856 15.6668 8.58476 15.6317 8.7036 15.6318C9.0342 15.6318 9.3036 15.9012 9.3036 16.2318ZM10.8036 10.8318C10.8036 10.17 11.3418 9.6318 12.0036 9.6318C12.6648 9.6318 13.2036 10.17 13.2036 10.8318C13.2036 11.4936 12.6648 12.0318 12.0036 12.0318C11.3418 12.0318 10.8036 11.4936 10.8036 10.8318ZM15.591 15.0744V13.5318C15.591 13.4522 15.5594 13.3759 15.5031 13.3197C15.4469 13.2634 15.3706 13.2318 15.291 13.2318H12.3036V12.6012C12.7223 12.5308 13.1025 12.3145 13.377 11.9907C13.6516 11.6669 13.8027 11.2563 13.8036 10.8318C13.8036 9.8394 12.996 9.0318 12.0036 9.0318C11.0106 9.0318 10.2036 9.8394 10.2036 10.8318C10.2044 11.2564 10.3555 11.667 10.63 11.9908C10.9046 12.3147 11.2849 12.5309 11.7036 12.6012V13.2318H8.7036C8.62403 13.2318 8.54773 13.2634 8.49147 13.3197C8.43521 13.3759 8.4036 13.4522 8.4036 13.5318V15.0744C7.887 15.2082 7.5036 15.6744 7.5036 16.2318C7.5036 16.8936 8.0418 17.4318 8.7036 17.4318C9.3648 17.4318 9.9036 16.8936 9.9036 16.2318C9.9036 15.6744 9.5196 15.2082 9.0036 15.0744V13.8318H11.7036V15.0744C11.4212 15.1471 11.175 15.3204 11.0112 15.5617C10.8474 15.803 10.7773 16.0958 10.8141 16.3851C10.8508 16.6744 10.9919 16.9404 11.2108 17.1331C11.4297 17.3258 11.7114 17.432 12.003 17.4318C12.3211 17.4313 12.6259 17.3047 12.8508 17.0798C13.0756 16.8548 13.2021 16.5499 13.2024 16.2318C13.2024 15.6744 12.819 15.2088 12.3036 15.0744V13.8318H14.991V15.0744C14.475 15.2082 14.091 15.6744 14.091 16.2318C14.091 16.8936 14.6292 17.4318 15.291 17.4318C15.9528 17.4318 16.491 16.8936 16.491 16.2318C16.491 15.6744 16.107 15.2082 15.591 15.0744ZM12.0036 19.2318C8.9598 19.2318 6.6 18.2664 6.6 17.436V6.3642C7.8186 7.1688 10.6158 7.278 12.0036 7.278C13.3896 7.278 16.1826 7.1694 17.4036 6.3666V17.436C17.4036 18.2664 15.0444 19.2318 12.0036 19.2318ZM12.0036 4.2C15.5094 4.2 17.4018 4.839 17.4018 5.4402C17.4018 6.0402 15.5094 6.678 12.0036 6.678C8.4972 6.678 6.6048 6.0402 6.6048 5.4402C6.6048 4.839 8.4972 4.2 12.0036 4.2ZM18.0036 5.4318C17.9886 3.7794 13.8036 3.6 12.0036 3.6C10.2036 3.6 6.015 3.7794 6 5.4318V17.436C6 18.9156 9.1158 19.8318 12.0036 19.8318C14.889 19.8318 18.0036 18.9156 18.0036 17.436V5.4318Z" fill="white"/>
</g>
<defs>
<linearGradient id="paint0_linear_1002_3671" x1="0" y1="24" x2="24" y2="0" gradientUnits="userSpaceOnUse">
<stop stop-color="#4D27A8"/>
<stop offset="1" stop-color="#A166FF"/>
</linearGradient>
<clipPath id="clip0_1002_3671">
<rect width="24" height="24" fill="white"/>
</clipPath>
</defs>
</svg>
