<svg width="24" height="24" viewBox="0 0 24 24" fill="none" xmlns="http://www.w3.org/2000/svg">
<g clip-path="url(#clip0_1002_2931)">
<path fill-rule="evenodd" clip-rule="evenodd" d="M12.9545 12.4775H13.9085V11.523H12.9545V12.4775ZM11.5225 12.4775H12.477V11.523H11.5225V12.4775ZM10.091 12.4775H11.0455V11.523H10.091V12.4775ZM18.659 15.5015L15.364 18.401V5.666L18.659 8.565V15.5015ZM15.472 4.463C15.37 4.4195 14.928 4.2895 14.621 4.46L14.364 4.6025V19.4645L14.621 19.607C14.7355 19.6705 14.8685 19.6925 14.9965 19.6925C15.2105 19.6925 15.408 19.6315 15.472 19.604L15.546 19.573L19.2825 16.2845C19.514 16.1495 19.659 15.9065 19.659 15.642V8.4245C19.659 8.1605 19.5145 7.9175 19.283 7.782L15.546 4.494L15.472 4.463V4.463ZM8.6365 18.4015L5.341 15.502V8.5645L8.6365 5.6655V18.4015V18.4015ZM8.5275 4.463L8.4535 4.494L4.716 7.7825C4.4855 7.918 4.341 8.1605 4.341 8.4245V15.642C4.341 15.906 4.4855 16.1495 4.7165 16.284L8.4535 19.573L8.5275 19.604C8.591 19.6315 8.789 19.6925 9.003 19.6925C9.1305 19.6925 9.2635 19.6705 9.378 19.6075L9.6365 19.465V4.602L9.378 4.4595C9.072 4.291 8.629 4.4195 8.5275 4.463V4.463ZM22 16.142L16.142 22H7.8575L2 16.142V7.858L7.8575 2H16.142L22 7.858V16.142ZM16.556 1H7.4435L1 7.444V16.556L7.4435 23H16.556L23 16.556V7.444L16.556 1Z" fill="#4D27AA"/>
</g>
<defs>
<clipPath id="clip0_1002_2931">
<rect width="24" height="24" fill="white"/>
</clipPath>
</defs>
</svg>
