<svg width="24" height="24" viewBox="0 0 24 24" fill="none" xmlns="http://www.w3.org/2000/svg">
<g clip-path="url(#clip0_1002_3678)">
<path fill-rule="evenodd" clip-rule="evenodd" d="M0 0H24V24H0V0Z" fill="url(#paint0_linear_1002_3678)"/>
<path fill-rule="evenodd" clip-rule="evenodd" d="M12.614 13.8192V13.2168C13.6808 13.0692 14.4926 12.1548 14.4926 11.034C14.4926 9.9138 13.6808 8.9988 12.614 8.8518V8.2488C14.0162 8.3988 15.0926 9.5808 15.0926 11.034C15.0926 12.486 14.0162 13.668 12.614 13.8192ZM13.2152 4.5636H12.614V3.9636H13.532C13.6148 3.9636 13.6934 3.9978 13.7504 4.0572C13.7783 4.087 13.7999 4.12214 13.8138 4.1605C13.8277 4.19886 13.8337 4.23965 13.8314 4.2804L13.7828 5.1564C14.2844 5.292 14.765 5.49 15.2162 5.748L15.7994 5.0928C15.8264 5.06215 15.8595 5.03738 15.8965 5.02002C15.9335 5.00267 15.9736 4.99311 16.0145 4.99193C16.0553 4.99074 16.096 4.99797 16.1339 5.01316C16.1718 5.02834 16.2063 5.05116 16.235 5.0802L18.14 6.9804C18.1689 7.00929 18.1916 7.04378 18.2067 7.08175C18.2218 7.11972 18.229 7.16037 18.2278 7.20122C18.2266 7.24206 18.2171 7.28223 18.1998 7.31927C18.1826 7.35631 18.1579 7.38943 18.1274 7.4166L17.4746 8.0004C17.7332 8.4498 17.933 8.9298 18.0698 9.4326L18.944 9.3822C19.026 9.37968 19.1059 9.40867 19.1672 9.4632C19.197 9.49126 19.2207 9.52511 19.2369 9.56267C19.2531 9.60023 19.2614 9.6407 19.2614 9.6816L19.265 12.3714C19.2649 12.4122 19.2566 12.4526 19.2405 12.4902C19.2244 12.5277 19.2009 12.5616 19.1714 12.5898C19.1419 12.6181 19.1068 12.64 19.0684 12.6541C19.03 12.6681 18.989 12.674 18.9482 12.6714L18.0764 12.6228C17.9193 13.2075 17.675 13.7652 17.3516 14.277L16.8446 13.9572C17.1764 13.4306 17.4154 12.851 17.5514 12.2436C17.5838 12.1008 17.693 11.9988 17.8616 12.0096L18.6644 12.0546L18.662 9.9996L17.8562 10.0458C17.7853 10.0506 17.715 10.0297 17.6581 9.98697C17.6013 9.94424 17.5617 9.88249 17.5466 9.813C17.4091 9.20654 17.1686 8.62815 16.8356 8.103C16.7975 8.04306 16.782 7.97153 16.7918 7.90119C16.8015 7.83085 16.836 7.76628 16.889 7.719L17.4914 7.1808L16.0358 5.7288L15.4988 6.3324C15.4518 6.3857 15.3872 6.42044 15.3168 6.43034C15.2464 6.44024 15.1747 6.42466 15.1148 6.3864C14.5888 6.05563 14.01 5.81739 13.4036 5.682C13.3344 5.66635 13.2729 5.62666 13.2302 5.56997C13.1874 5.51328 13.1662 5.44328 13.1702 5.3724L13.2152 4.5642V4.5636ZM9.36441 18.8118L8.41881 18.2442L10.3988 16.7592L10.0388 16.2792L7.86321 17.9112L6.01521 16.8024V14.5992L7.37421 13.776L7.06341 13.263L5.68761 14.0964L4.20021 13.5012L4.19961 11.6952L5.85561 10.6932L5.54541 10.1796L4.19961 10.9944L4.20021 9.8916L5.70141 9.069L7.23081 10.0812V10.9572L6.45381 11.469L6.78321 11.97L7.55061 11.466L8.40741 11.9034V12.9192H9.00741V11.7192C9.00741 11.664 8.99217 11.6098 8.96338 11.5627C8.93458 11.5156 8.89335 11.4774 8.84421 11.4522L7.83081 10.9356V10.0812L9.51141 8.9694C9.55296 8.94223 9.58707 8.90512 9.61064 8.86142C9.63422 8.81773 9.64651 8.76885 9.64641 8.7192V6.9192H9.04641V8.5572L7.53081 9.5592L6.01521 8.5584V6.24L7.20621 5.4456V6.9192H7.80621V5.0454L9.01821 4.2378L11.4002 5.193V10.8924L10.0772 9.9984L9.74121 10.4964L11.4002 11.6166V12.4878L8.83461 14.4828L9.20241 14.9562L11.4002 13.2474V17.8698L9.36441 18.8118V18.8118ZM11.8118 4.7118L9.09501 3.6222C9.04979 3.60386 9.00076 3.59689 8.95222 3.60191C8.90368 3.60693 8.85711 3.62379 8.81661 3.651L5.54901 5.829C5.50783 5.85647 5.47407 5.89367 5.45073 5.93732C5.42739 5.98097 5.41519 6.0297 5.41521 6.0792V8.5416L3.75561 9.45C3.70847 9.47594 3.66917 9.51407 3.64183 9.56041C3.61449 9.60675 3.60011 9.6596 3.60021 9.7134L3.59961 11.4378L3.60021 13.7046C3.60021 13.827 3.67521 13.9374 3.78861 13.983L5.41521 14.6334V16.9722C5.4152 17.024 5.42862 17.075 5.45418 17.1201C5.47973 17.1652 5.51654 17.203 5.56101 17.2296L9.19221 19.4076C9.234 19.4332 9.2815 19.4479 9.33041 19.4505C9.37933 19.4531 9.42813 19.4435 9.47241 19.4226L11.8262 18.3336C11.8781 18.3094 11.922 18.271 11.9528 18.2227C11.9837 18.1745 12.0001 18.1184 12.0002 18.0612V4.9902C12.0003 4.93027 11.9824 4.8717 11.9488 4.82206C11.9152 4.77243 11.8675 4.73402 11.8118 4.7118V4.7118ZM18.0914 18.312H13.8656C13.8051 18.3154 13.7447 18.3024 13.691 18.2742C13.4972 18.1518 13.2662 17.916 13.2662 17.4864C13.2662 16.9542 13.604 16.7556 13.8884 16.6824C13.9557 16.665 14.0148 16.6248 14.0557 16.5687C14.0967 16.5126 14.1168 16.444 14.1128 16.3746L14.102 16.1964C14.102 15.7272 14.4356 15.2034 14.8454 15.03C15.0098 14.9575 15.1872 14.9193 15.3668 14.9178C15.818 14.9178 16.1366 15.1758 16.2758 15.3168C16.4288 15.4704 16.5542 15.6768 16.6376 15.915C16.6559 15.9663 16.6878 16.0116 16.7299 16.0461C16.7719 16.0806 16.8226 16.1031 16.8764 16.1111C16.9303 16.1191 16.9853 16.1124 17.0356 16.0916C17.0859 16.0708 17.1296 16.0367 17.162 15.993C17.2064 15.931 17.2692 15.8847 17.3415 15.8606C17.4138 15.8364 17.4919 15.8357 17.5646 15.8586C17.7356 15.9144 17.8334 16.0968 17.8346 16.3308C17.824 16.4079 17.8437 16.4862 17.8895 16.5491C17.9354 16.612 18.0039 16.6546 18.0806 16.668C18.368 16.7172 18.8498 16.89 18.8498 17.496C18.8498 18.2016 18.2054 18.3 18.0914 18.312V18.312ZM18.4172 16.1328C18.3434 15.6516 18.0392 15.3828 17.7518 15.2886C17.5154 15.2114 17.2581 15.2295 17.0348 15.339C16.9443 15.1761 16.8321 15.0264 16.7012 14.8938C16.1306 14.3196 15.35 14.1648 14.6108 14.4774C13.9886 14.7414 13.517 15.4626 13.5026 16.1808C12.9746 16.4046 12.6662 16.8768 12.6662 17.4864C12.6662 18.2262 13.1078 18.6156 13.3712 18.7818C13.5086 18.8682 13.6754 18.912 13.8656 18.912H18.1052C18.1124 18.9119 18.1196 18.9115 18.1268 18.9108C18.5846 18.8778 19.4498 18.5388 19.4498 17.496C19.4498 16.722 18.9512 16.2984 18.4172 16.1328V16.1328Z" fill="white"/>
</g>
<defs>
<linearGradient id="paint0_linear_1002_3678" x1="0" y1="24" x2="24" y2="0" gradientUnits="userSpaceOnUse">
<stop stop-color="#C8511B"/>
<stop offset="1" stop-color="#FF9900"/>
</linearGradient>
<clipPath id="clip0_1002_3678">
<rect width="24" height="24" fill="white"/>
</clipPath>
</defs>
</svg>
