<svg width="24" height="24" viewBox="0 0 24 24" fill="none" xmlns="http://www.w3.org/2000/svg">
<g clip-path="url(#clip0_1002_3692)">
<path fill-rule="evenodd" clip-rule="evenodd" d="M0 0H24V24H0V0Z" fill="url(#paint0_linear_1002_3692)"/>
<path fill-rule="evenodd" clip-rule="evenodd" d="M11.1452 11.094C10.4228 11.094 9.97401 10.644 9.97401 9.9192C9.97401 9.195 10.4228 8.745 11.1452 8.745C11.8682 8.745 12.3164 9.195 12.3164 9.9192C12.3164 10.644 11.8682 11.094 11.1452 11.094ZM15.6164 9.618H12.8894C12.7622 8.7378 12.083 8.1432 11.1452 8.1432C10.1024 8.1432 9.37401 8.874 9.37401 9.9192C9.37401 10.9656 10.1024 11.6952 11.1452 11.6952C12.083 11.6952 12.7622 11.1012 12.8894 10.2198H15.6164V9.6186V9.618ZM8.11401 9.9228C8.11401 11.6424 9.46041 12.9894 11.18 12.9894C12.4082 12.9894 13.4978 12.1092 13.9544 10.7472L14.5226 10.9392C13.9832 12.5496 12.671 13.5912 11.18 13.5912C10.2077 13.5899 9.27562 13.203 8.58831 12.5152C7.90101 11.8274 7.51465 10.8951 7.51401 9.9228C7.51401 7.896 9.15801 6.2478 11.18 6.2478C12.7796 6.2478 14.03 7.1274 14.5226 8.5998L13.9544 8.7918C13.5404 7.5576 12.5294 6.8496 11.18 6.8496C9.48921 6.8496 8.11401 8.2284 8.11401 9.9228ZM4.19961 13.2186H5.37741V12.0366H4.19961V13.2186ZM4.19961 7.8366H5.37741V6.6408H4.19961V7.8366ZM5.97741 13.5198V4.2018H16.8566V12.0156H17.4566V4.1958C17.4566 3.6456 17.1494 3.6 16.8614 3.6H5.97141C5.68341 3.6 5.37741 3.6456 5.37741 4.1958V6.039H3.89961C3.86011 6.039 3.821 6.0468 3.78453 6.06195C3.74805 6.0771 3.71493 6.09931 3.68705 6.12729C3.65918 6.15528 3.63711 6.18849 3.6221 6.22502C3.6071 6.26156 3.59945 6.3007 3.59961 6.3402V8.1372C3.59945 8.1767 3.6071 8.21584 3.6221 8.25237C3.63711 8.28891 3.65918 8.32212 3.68705 8.35011C3.71493 8.37809 3.74805 8.4003 3.78453 8.41545C3.821 8.4306 3.86011 8.4384 3.89961 8.4384H5.37741V11.4354H3.89961C3.82005 11.4354 3.74374 11.467 3.68748 11.5233C3.63122 11.5795 3.59961 11.6558 3.59961 11.7354V13.5198C3.59961 13.5994 3.63122 13.6757 3.68748 13.7319C3.74374 13.7882 3.82005 13.8198 3.89961 13.8198H5.37741V15.6432C5.37741 16.1052 5.51061 16.239 5.97141 16.239H12.0164V15.6378H5.97741V13.5198ZM19.7996 19.7982H19.3544L18.8522 19.3122C18.7962 19.258 18.7213 19.2277 18.6434 19.2276H18.0572V18.6816C18.0569 18.6017 18.025 18.5251 17.9684 18.4686L17.6774 18.1782C17.6209 18.1227 17.5449 18.0914 17.4656 18.0912H16.8854V17.5236C16.8855 17.4494 16.8581 17.3778 16.8086 17.3226L16.3958 16.8606C16.3532 16.8131 16.2965 16.7804 16.2341 16.7672C16.1716 16.7541 16.1066 16.7611 16.0484 16.7874C15.7849 16.9057 15.496 16.9563 15.208 16.9344C14.92 16.9125 14.6421 16.8189 14.3995 16.6621C14.1569 16.5053 13.9574 16.2903 13.8192 16.0366C13.681 15.783 13.6085 15.4988 13.6082 15.21C13.6081 14.7515 13.7898 14.3117 14.1135 13.9871C14.4372 13.6625 14.8765 13.4795 15.335 13.4784C15.7935 13.4795 16.2328 13.6625 16.5565 13.9871C16.8802 14.3117 17.062 14.7515 17.0618 15.21C17.0618 15.5172 17.0198 15.7662 16.9364 15.951C16.9114 16.0067 16.9039 16.0686 16.9149 16.1286C16.926 16.1886 16.955 16.2439 16.9982 16.287L19.7996 19.0962V19.7982ZM20.3114 18.759L17.558 15.999C17.6276 15.7734 17.6618 15.5094 17.6618 15.21C17.662 14.5923 17.4171 13.9997 16.9808 13.5624C16.5446 13.1251 15.9527 12.8786 15.335 12.8772C14.7174 12.8788 14.1255 13.1253 13.6893 13.5626C13.2532 13.9999 13.0082 14.5923 13.0082 15.21C13.0082 15.8277 13.2532 16.4201 13.6893 16.8574C14.1255 17.2947 14.7174 17.5412 15.335 17.5428C15.5942 17.5428 15.8468 17.5008 16.088 17.418L16.286 17.6382V18.3918C16.2859 18.4313 16.2935 18.4704 16.3085 18.507C16.3235 18.5435 16.3456 18.5767 16.3735 18.6047C16.4013 18.6327 16.4345 18.6549 16.4709 18.67C16.5074 18.6852 16.5465 18.693 16.586 18.693H17.342L17.4572 18.807V19.5282C17.4571 19.5677 17.4647 19.6068 17.4797 19.6434C17.4947 19.6799 17.5168 19.7131 17.5447 19.7411C17.5725 19.7691 17.6057 19.7913 17.6421 19.8064C17.6786 19.8216 17.7177 19.8294 17.7572 19.8294H18.5222L19.0244 20.3154C19.0808 20.3694 19.1552 20.4 19.2326 20.4H20.0996C20.1391 20.4 20.1781 20.3922 20.2146 20.3771C20.251 20.362 20.2841 20.3398 20.312 20.3119C20.3398 20.284 20.3619 20.2509 20.3769 20.2144C20.392 20.1779 20.3997 20.1388 20.3996 20.0994V18.9714C20.3995 18.8917 20.3677 18.8153 20.3114 18.759ZM15.3152 15.5388C15.2372 15.5388 15.1625 15.5078 15.1073 15.4527C15.0522 15.3976 15.0212 15.3228 15.0212 15.2448C15.0212 15.1668 15.0522 15.092 15.1073 15.0369C15.1625 14.9818 15.2372 14.9508 15.3152 14.9508C15.3932 14.9508 15.468 14.9818 15.5231 15.0369C15.5782 15.092 15.6092 15.1668 15.6092 15.2448C15.6092 15.3228 15.5782 15.3976 15.5231 15.4527C15.468 15.5078 15.3932 15.5388 15.3152 15.5388ZM15.3152 14.3496C15.0777 14.3496 14.8499 14.4439 14.682 14.6119C14.5141 14.7798 14.4197 15.0076 14.4197 15.2451C14.4197 15.4826 14.5141 15.7104 14.682 15.8783C14.8499 16.0463 15.0777 16.1406 15.3152 16.1406C15.5487 16.1346 15.7706 16.0376 15.9336 15.8703C16.0966 15.703 16.1878 15.4787 16.1878 15.2451C16.1878 15.0115 16.0966 14.7872 15.9336 14.6199C15.7706 14.4526 15.5487 14.3556 15.3152 14.3496Z" fill="white"/>
</g>
<defs>
<linearGradient id="paint0_linear_1002_3692" x1="0" y1="24" x2="24" y2="0" gradientUnits="userSpaceOnUse">
<stop stop-color="#BD0816"/>
<stop offset="1" stop-color="#FF5252"/>
</linearGradient>
<clipPath id="clip0_1002_3692">
<rect width="24" height="24" fill="white"/>
</clipPath>
</defs>
</svg>
