<svg width="29" height="28" viewBox="0 0 29 28" fill="none" xmlns="http://www.w3.org/2000/svg">
<g clip-path="url(#clip0_562_1400)">
<path fill-rule="evenodd" clip-rule="evenodd" d="M14.8477 0C7.11266 0 0.847656 6.265 0.847656 14C0.847656 20.195 4.85516 25.4275 10.4202 27.2825C11.1202 27.405 11.3827 26.985 11.3827 26.6175C11.3827 26.285 11.3652 25.1825 11.3652 24.01C7.84766 24.6575 6.93766 23.1525 6.65766 22.365C6.50016 21.9625 5.81766 20.72 5.22266 20.3875C4.73266 20.125 4.03266 19.4775 5.20516 19.46C6.30766 19.4425 7.09516 20.475 7.35766 20.895C8.61766 23.0125 10.6302 22.4175 11.4352 22.05C11.5577 21.14 11.9252 20.5275 12.3277 20.1775C9.21266 19.8275 5.95766 18.62 5.95766 13.265C5.95766 11.7425 6.50016 10.4825 7.39266 9.5025C7.25266 9.1525 6.76266 7.7175 7.53266 5.7925C7.53266 5.7925 8.70516 5.425 11.3827 7.2275C12.5027 6.9125 13.6927 6.755 14.8827 6.755C16.0727 6.755 17.2627 6.9125 18.3827 7.2275C21.0602 5.4075 22.2327 5.7925 22.2327 5.7925C23.0027 7.7175 22.5127 9.1525 22.3727 9.5025C23.2652 10.4825 23.8077 11.725 23.8077 13.265C23.8077 18.6375 20.5352 19.8275 17.4202 20.1775C17.9277 20.615 18.3652 21.455 18.3652 22.7675C18.3652 24.64 18.3477 26.145 18.3477 26.6175C18.3477 26.985 18.6102 27.4225 19.3102 27.2825C22.0894 26.3442 24.5044 24.558 26.2153 22.1753C27.9262 19.7926 28.8468 16.9333 28.8477 14C28.8477 6.265 22.5827 0 14.8477 0Z" fill="black"/>
</g>
<defs>
<clipPath id="clip0_562_1400">
<rect width="28" height="28" fill="white" transform="translate(0.847656)"/>
</clipPath>
</defs>
</svg>
