<svg width="25" height="26" viewBox="0 0 25 26" fill="none" xmlns="http://www.w3.org/2000/svg">
<path d="M24.0565 10.8269L13.8538 10.8264C13.4033 10.8264 13.0381 11.1914 13.0381 11.6416V14.899C13.0381 15.3492 13.4033 15.7142 13.8538 15.7142H19.5993C18.9701 17.346 17.7959 18.7126 16.2977 19.5809L18.7476 23.8194C22.6775 21.5479 25.0009 17.5623 25.0009 13.1007C25.0009 12.4655 24.9541 12.0113 24.8604 11.5C24.7892 11.1115 24.4517 10.8269 24.0565 10.8269Z" fill="#167EE6"/>
<path d="M12.4896 20.6094C9.67784 20.6094 7.22322 19.074 5.90489 16.802L1.66406 19.245C3.82219 22.9832 7.86506 25.5005 12.4896 25.5005C14.7582 25.5005 16.8989 24.89 18.7429 23.8261V23.8203L16.293 19.5818C15.1724 20.2313 13.8756 20.6094 12.4896 20.6094Z" fill="#12B347"/>
<path d="M18.7549 23.8242V23.8184L16.3053 19.5799C15.1849 20.2294 13.8884 20.6075 12.5024 20.6075V25.4985C14.7708 25.4985 16.9112 24.8881 18.7549 23.8242Z" fill="#0F993E"/>
<path d="M4.89223 13C4.89223 11.6149 5.2704 10.319 5.92012 9.19907L1.6799 6.75613C0.609709 8.59329 -0.000976562 10.7269 -0.000976562 13C-0.000976562 15.2731 0.609709 17.4067 1.6799 19.2439L5.92012 16.8009C5.2704 15.681 4.89223 14.3851 4.89223 13Z" fill="#FFD500"/>
<path d="M12.4896 5.39133C14.3231 5.39133 16.0073 6.04246 17.3228 7.12556C17.6474 7.39274 18.119 7.37345 18.4163 7.07635L20.7257 4.76836C21.0629 4.43127 21.0389 3.87949 20.6786 3.56711C18.4746 1.65612 15.6068 0.500275 12.4896 0.500275C7.86506 0.500275 3.82219 3.01757 1.66406 6.75576L5.90489 9.1987C7.22322 6.92669 9.67784 5.39133 12.4896 5.39133Z" fill="#FF4B26"/>
<path d="M17.3357 7.12556C17.6602 7.39273 18.1319 7.37345 18.4292 7.07634L20.7385 4.76836C21.0757 4.43127 21.0517 3.87949 20.6915 3.56711C18.4874 1.65607 15.6197 0.500275 12.5024 0.500275V5.39133C14.3359 5.39133 16.0202 6.04246 17.3357 7.12556Z" fill="#D93F21"/>
</svg>
