<svg width="79" height="20" viewBox="0 0 79 20" fill="none" xmlns="http://www.w3.org/2000/svg">
<g clip-path="url(#clip0_648_139)">
<path d="M25.168 15.6746L26.1506 13.3923C27.2124 14.1847 28.6229 14.5969 30.0177 14.5969C31.0478 14.5969 31.6977 14.2006 31.6977 13.5984C31.6818 11.9184 25.5324 13.2338 25.4849 9.01795C25.469 6.87841 27.371 5.2301 30.0652 5.2301C31.666 5.2301 33.2667 5.62626 34.4078 6.52964L33.4886 8.85949C32.4426 8.1938 31.143 7.71841 29.9067 7.71841C29.0667 7.71841 28.5121 8.11456 28.5121 8.62179C28.528 10.2701 34.7249 9.36672 34.7883 13.3923C34.7883 15.5795 32.934 17.1169 30.2714 17.1169C28.3218 17.1169 26.5309 16.6572 25.168 15.6746ZM62.8726 12.5681L65.5827 14.0738C64.5684 15.8964 62.6349 17.1169 60.4001 17.1169C57.1194 17.1169 54.4567 14.4543 54.4567 11.1735C54.4567 7.89272 57.1194 5.2301 60.4001 5.2301C62.619 5.2301 64.5684 6.46626 65.5827 8.27318L62.8726 9.77872C62.3812 8.92287 61.462 8.33656 60.4001 8.33656C58.831 8.33656 57.5632 9.60441 57.5632 11.1735C57.5632 12.7426 58.831 14.0104 60.4001 14.0104C61.462 14.0104 62.3812 13.4239 62.8724 12.5681H62.8726ZM36.1512 0.301025H39.5429V16.8949H36.1512V0.301025ZM66.914 0.301025H70.3057V10.0481L74.141 5.46779H78.2935L73.5547 10.9832L78.674 16.8949H74.3314L70.3057 11.9184V16.8949H66.914V0.301025ZM49.6229 12.5999V9.79456C49.1315 8.97041 48.1172 8.33656 46.9761 8.33656C45.4069 8.33656 44.1392 9.60441 44.1392 11.1735C44.1392 12.7426 45.4069 14.0104 46.9761 14.0104C48.1172 14.0104 49.1315 13.4081 49.6229 12.5998V12.5999ZM49.6229 5.46795H53.0146V16.8792H49.6229V15.5321C49.0681 16.4672 47.6892 17.117 46.247 17.117C43.2674 17.117 40.9218 14.4544 40.9218 11.1578C40.9218 7.86118 43.2674 5.23026 46.247 5.23026C47.6892 5.23026 49.0681 5.8801 49.6229 6.81518V5.46764V5.46795Z" fill="#4F4F4F"/>
<path d="M4.19978 12.5839C4.19978 13.7409 3.2647 14.6761 2.10763 14.6761C1.83281 14.6764 1.56065 14.6224 1.30671 14.5174C1.05276 14.4123 0.822032 14.2582 0.627717 14.0639C0.433403 13.8696 0.279321 13.6388 0.17429 13.3849C0.0692595 13.1309 0.0153428 12.8588 0.0156261 12.5839C0.0156261 11.427 0.950703 10.4919 2.10763 10.4919H4.19978V12.5839ZM5.24578 12.5839C5.24578 11.427 6.18086 10.4919 7.33778 10.4919C8.4947 10.4919 9.42993 11.427 9.42993 12.5839V17.8141C9.42993 18.971 8.49486 19.9063 7.33778 19.9063C7.06298 19.9065 6.79083 19.8525 6.53691 19.7475C6.28298 19.6424 6.05227 19.4883 5.85797 19.294C5.66367 19.0997 5.5096 18.8689 5.40458 18.615C5.29956 18.3611 5.24565 18.0889 5.24593 17.8141V12.5839H5.24578Z" fill="#E01E5A"/>
<path d="M7.338 4.18415C7.0632 4.1844 6.79105 4.13045 6.53713 4.02539C6.2832 3.92033 6.05249 3.76623 5.85819 3.5719C5.66389 3.37757 5.50983 3.14684 5.4048 2.8929C5.29978 2.63896 5.24587 2.3668 5.24615 2.092C5.246 0.935077 6.18108 0 7.338 0C8.49492 0 9.43016 0.935077 9.43016 2.092V4.18415H7.338ZM7.338 5.246C8.49492 5.246 9.43016 6.18108 9.43016 7.338C9.43016 8.49492 8.49508 9.43015 7.338 9.43015H2.092C1.81719 9.43042 1.54502 9.37648 1.29108 9.27143C1.03714 9.16638 0.806407 9.01228 0.612092 8.81795C0.417778 8.62362 0.263696 8.39288 0.158665 8.13893C0.0536345 7.88498 -0.000282223 7.61281 1.11091e-06 7.338C1.11091e-06 6.18108 0.935078 5.24615 2.092 5.24615H7.33816L7.338 5.246Z" fill="#36C5F0"/>
<path d="M15.7223 7.338C15.7223 6.18108 16.6574 5.246 17.8143 5.246C18.9713 5.246 19.9065 6.18108 19.9065 7.338C19.9065 8.49492 18.9714 9.43015 17.8143 9.43015H15.7223V7.338ZM14.6762 7.338C14.6762 8.49492 13.7413 9.43015 12.5842 9.43015C12.3094 9.43042 12.0372 9.37648 11.7833 9.27143C11.5293 9.16638 11.2986 9.01228 11.1043 8.81795C10.91 8.62362 10.7559 8.39288 10.6509 8.13893C10.5458 7.88498 10.4919 7.61281 10.4922 7.338V2.092C10.4922 0.935077 11.4273 0 12.5842 0C13.7411 0 14.6763 0.935077 14.6763 2.092V7.33815L14.6762 7.338Z" fill="#2EB67D"/>
<path d="M12.5842 15.7221C13.7411 15.7221 14.6763 16.6572 14.6763 17.8141C14.6763 18.971 13.7413 19.9063 12.5842 19.9063C12.3094 19.9065 12.0372 19.8526 11.7833 19.7475C11.5293 19.6425 11.2986 19.4884 11.1043 19.2941C10.91 19.0997 10.7559 18.869 10.6509 18.615C10.5458 18.3611 10.4919 18.0889 10.4922 17.8141V15.7221H12.5842ZM12.5842 14.6759C12.3094 14.6762 12.0372 14.6223 11.7833 14.5172C11.5294 14.4122 11.2986 14.2581 11.1043 14.0638C10.91 13.8695 10.7559 13.6388 10.6509 13.3848C10.5459 13.1309 10.4919 12.8587 10.4922 12.5839C10.4922 11.427 11.4273 10.4919 12.5842 10.4919H17.8303C18.9873 10.4919 19.9223 11.427 19.9223 12.5839C19.9223 13.7409 18.9873 14.6761 17.8302 14.6761H12.5842V14.6759Z" fill="#ECB22E"/>
</g>
<defs>
<clipPath id="clip0_648_139">
<rect width="78.7692" height="20" fill="white"/>
</clipPath>
</defs>
</svg>
