<svg width="28" height="28" viewBox="0 0 28 28" fill="none" xmlns="http://www.w3.org/2000/svg">
<g clip-path="url(#clip0_562_1382)">
<path d="M5.88028 17.6176C5.88028 19.2373 4.57117 20.5466 2.95126 20.5466C2.56652 20.547 2.18549 20.4715 1.82997 20.3244C1.47445 20.1773 1.15143 19.9616 0.87939 19.6895C0.60735 19.4175 0.391635 19.0944 0.244592 18.7389C0.0975492 18.3834 0.0220658 18.0023 0.0224625 17.6176C0.0224625 15.9979 1.33157 14.6888 2.95126 14.6888H5.88028V17.6176ZM7.34468 17.6176C7.34468 15.9979 8.65378 14.6888 10.2735 14.6888C11.8932 14.6888 13.2025 15.9979 13.2025 17.6176V24.9398C13.2025 26.5595 11.8934 27.8688 10.2735 27.8688C9.88876 27.8692 9.50775 27.7936 9.15225 27.6466C8.79676 27.4995 8.47376 27.2837 8.20174 27.0117C7.92973 26.7396 7.71403 26.4166 7.567 26.0611C7.41997 25.7056 7.3445 25.3245 7.34489 24.9398V17.6176H7.34468Z" fill="#E01E5A"/>
<path d="M10.2732 5.85782C9.88848 5.85816 9.50747 5.78262 9.15198 5.63554C8.79649 5.48846 8.47349 5.27272 8.20147 5.00066C7.92945 4.7286 7.71376 4.40557 7.56673 4.05006C7.4197 3.69454 7.34422 3.31352 7.34462 2.9288C7.3444 1.30911 8.65351 0 10.2732 0C11.8929 0 13.2022 1.30911 13.2022 2.9288V5.85782H10.2732ZM10.2732 7.3444C11.8929 7.3444 13.2022 8.65351 13.2022 10.2732C13.2022 11.8929 11.8931 13.2022 10.2732 13.2022H2.9288C2.54406 13.2026 2.16303 13.1271 1.80751 12.98C1.45199 12.8329 1.12897 12.6172 0.85693 12.3451C0.584889 12.0731 0.369174 11.75 0.222131 11.3945C0.0750882 11.039 -0.000395112 10.6579 1.55528e-06 10.2732C1.55528e-06 8.65351 1.30911 7.34461 2.9288 7.34461H10.2734L10.2732 7.3444Z" fill="#36C5F0"/>
<path d="M22.0107 10.2732C22.0107 8.65351 23.3198 7.3444 24.9395 7.3444C26.5592 7.3444 27.8685 8.65351 27.8685 10.2732C27.8685 11.8929 26.5594 13.2022 24.9395 13.2022H22.0107V10.2732ZM20.5461 10.2732C20.5461 11.8929 19.2372 13.2022 17.6173 13.2022C17.2325 13.2026 16.8515 13.1271 16.496 12.98C16.1405 12.8329 15.8174 12.6172 15.5454 12.3451C15.2734 12.0731 15.0577 11.75 14.9106 11.3945C14.7636 11.039 14.6881 10.6579 14.6885 10.2732V2.9288C14.6885 1.30911 15.9976 0 17.6173 0C19.237 0 20.5463 1.30911 20.5463 2.9288V10.2734L20.5461 10.2732Z" fill="#2EB67D"/>
<path d="M17.6173 22.011C19.237 22.011 20.5463 23.3201 20.5463 24.9398C20.5463 26.5595 19.2372 27.8688 17.6173 27.8688C17.2325 27.8692 16.8515 27.7937 16.496 27.6466C16.1405 27.4996 15.8174 27.2838 15.5454 27.0118C15.2734 26.7397 15.0577 26.4167 14.9106 26.0611C14.7636 25.7056 14.6881 25.3246 14.6885 24.9398V22.011H17.6173ZM17.6173 20.5464C17.2326 20.5468 16.8515 20.4713 16.496 20.3242C16.1405 20.1772 15.8175 19.9614 15.5455 19.6894C15.2734 19.4174 15.0577 19.0944 14.9107 18.7389C14.7636 18.3833 14.6881 18.0023 14.6885 17.6176C14.6885 15.9979 15.9976 14.6888 17.6173 14.6888H24.9619C26.5816 14.6888 27.8907 15.9979 27.8907 17.6176C27.8907 19.2373 26.5816 20.5466 24.9617 20.5466H17.6173V20.5464Z" fill="#ECB22E"/>
</g>
<defs>
<clipPath id="clip0_562_1382">
<rect width="28" height="28" fill="white"/>
</clipPath>
</defs>
</svg>
